#N canvas 373 66 450 363 10;
#X declare -path else;
#X obj 45 58 hsl 90 15 5 5000 0 0 empty empty a -12 8 0 10 -191407
-1 -1 300 1;
#X obj 45 81 hsl 90 15 5 5000 0 0 empty empty d -12 8 0 10 -191407
-1 -1 1900 1;
#X obj 45 104 hsl 90 15 0 1 0 0 empty empty s -12 8 0 10 -191407 -1
-1 3500 1;
#X obj 45 127 hsl 90 15 5 5000 0 0 empty empty r -12 8 0 10 -191407
-1 -1 1000 1;
#X obj 38 173 pack2 f f f f;
#X msg 38 194 env \$1 \$2 \$3 \$4;
#X obj 144 316 outlet;
#X obj 158 251 list prepend all toOscs \$1;
#X obj 154 53 vsl 32 70 0 8 0 0 empty empty ratio 0 -9 0 10 -228856
-1 -1 1600 1;
#X obj 196 53 vsl 32 70 0 1 0 0 empty empty level 0 -9 0 10 -228856
-1 -1 2100 1;
#X msg 158 192 ratio \$1;
#X msg 243 192 level \$1;
#X obj 315 15 declare -path else;
#X msg 276 66 set Oscillator \$1;
#X obj 18 18 note 425 12 Menlo empty 0 0 0 0 0 255 255 255 0 0 Oscillator
1;
#X floatatom 154 128 5 0 0 0 - - -;
#X floatatom 196 129 5 0 0 0 - - -;
#X text 28 39 Envelope;
#X obj 276 45 initmess \$1;
#X obj 158 272 list trim;
#X connect 0 0 4 0;
#X connect 1 0 4 1;
#X connect 2 0 4 2;
#X connect 3 0 4 3;
#X connect 4 0 5 0;
#X connect 5 0 7 0;
#X connect 7 0 19 0;
#X connect 8 0 15 0;
#X connect 9 0 16 0;
#X connect 10 0 7 0;
#X connect 11 0 7 0;
#X connect 13 0 14 0;
#X connect 15 0 10 0;
#X connect 16 0 11 0;
#X connect 18 0 13 0;
#X connect 19 0 6 0;
#X coords 0 -1 1 1 235 145 2 10 10;
