#N canvas 14 240 589 426 10;
#X declare -path else;
#X obj 45 59 hsl 90 15 5 5000 0 0 \$0-slider_attack \$0-slider_attack_rcv
a -12 8 0 10 -191407 -1 -1 0 1;
#X obj 45 82 hsl 90 15 5 5000 0 0 \$0-slider_decay \$0-slider_decay_rcv
d -12 8 0 10 -191407 -1 -1 437 1;
#X obj 45 105 hsl 90 15 0 1 0 0 \$0-slider_sustain \$0-slider_sustain_rcv
s -12 8 0 10 -191407 -1 -1 8900 1;
#X obj 45 128 hsl 90 15 5 5000 0 0 \$0-slider_release \$0-slider_release_rcv
r -12 8 0 10 -191407 -1 -1 1773 1;
#X msg 40 248 env \$1 \$2 \$3 \$4;
#X obj 20 390 outlet;
#X obj 40 305 list prepend all toOscs \$1;
#X obj 154 54 vsl 32 70 0 8 0 0 \$0-ratio_slider \$0-ratio_slider_rcv
ratio 1 -9 0 10 -228856 -1 -1 431 1;
#X obj 196 54 vsl 32 70 0 1 0 0 \$0-level_slider \$0-level_slider_rcv
level 1 -9 0 10 -228856 -1 -1 6900 1;
#X msg 156 248 ratio \$1;
#X msg 263 248 level \$1;
#X obj 460 13 declare -path else;
#X floatatom 154 129 5 0 0 0 - #0-ratio_number_rcv #0-ratio_number
;
#X floatatom 196 129 5 0 0 0 - #0-level_number_rcv #0-level_number
;
#X text 28 40 Envelope;
#X obj 40 326 list trim;
#X obj 290 12 inlet;
#X obj 308 93 route \$1;
#X obj 363 93 route allOscs;
#X obj 19 16 cnv 15 15 15 empty \$0-oscillator_title Oscillator\ 6
0 9 0 12 -262144 -1 0;
#X obj 308 167 s \$0-ratio;
#X obj 378 167 s \$0-level;
#X obj 448 167 s \$0-envelope;
#N canvas 273 202 696 205 gui 0;
#X obj 43 67 r \$0-ratio;
#X obj 136 67 r \$0-level;
#X obj 365 27 r \$0-attack;
#X obj 440 27 r \$0-decay;
#X obj 509 27 r \$0-sustain;
#X obj 590 27 r \$0-release;
#X obj 415 109 pack2 f f f f;
#N canvas 667 163 587 205 ratio-gui 0;
#X obj 43 16 inlet;
#X msg 63 97 set \$1;
#X obj 90 139 s \$0-ratio_slider_rcv;
#X obj 63 118 t a a;
#X obj 63 163 s \$0-ratio_number_rcv;
#X obj 264 55 r \$0-ratio_slider;
#X obj 416 56 r \$0-ratio_number;
#X obj 284 84 s \$0-ratio;
#X obj 436 85 s \$0-ratio;
#X obj 106 33 r \$0-ratio_gui;
#X obj 116 64 t f f;
#X obj 143 87 s \$0-ratio_out;
#X connect 0 0 1 0;
#X connect 1 0 3 0;
#X connect 3 0 4 0;
#X connect 3 1 2 0;
#X connect 5 0 7 0;
#X connect 6 0 8 0;
#X connect 9 0 10 0;
#X connect 10 0 1 0;
#X connect 10 1 11 0;
#X restore 43 118 pd ratio-gui;
#N canvas 164 327 587 205 level-gui 0;
#X obj 43 16 inlet;
#X msg 83 107 set \$1;
#X obj 83 128 t a a;
#X obj 110 149 s \$0-level_slider_rcv;
#X obj 83 173 s \$0-level_number_rcv;
#X obj 297 67 r \$0-level_slider;
#X obj 306 94 s \$0-level;
#X obj 423 69 r \$0-level_number;
#X obj 436 98 s \$0-level;
#X obj 107 30 r \$0-level_gui;
#X obj 118 65 t f f;
#X obj 145 87 s \$0-level_out;
#X connect 0 0 1 0;
#X connect 1 0 2 0;
#X connect 2 0 4 0;
#X connect 2 1 3 0;
#X connect 5 0 6 0;
#X connect 7 0 8 0;
#X connect 9 0 10 0;
#X connect 10 0 1 0;
#X connect 10 1 11 0;
#X restore 136 118 pd level-gui;
#N canvas 187 380 853 350 envelope-gui 0;
#X obj 70 27 inlet;
#X obj 580 46 s \$0-envelope;
#X obj 564 19 inlet;
#X obj 110 118 unpack f f f f, f 34;
#X msg 110 140 set \$1;
#X msg 177 140 set \$1;
#X msg 244 140 set \$1;
#X msg 311 140 set \$1;
#X obj 110 286 s \$0-slider_attack_rcv;
#X obj 177 260 s \$0-slider_decay_rcv;
#X obj 244 231 s \$0-slider_sustain_rcv;
#X obj 311 202 s \$0-slider_release_rcv;
#X obj 539 171 r \$0-slider_attack;
#X obj 539 192 s \$0-attack;
#X obj 689 171 r \$0-slider_decay;
#X obj 689 192 s \$0-decay;
#X obj 539 221 r \$0-slider_sustain;
#X obj 539 242 s \$0-sustain;
#X obj 689 221 r \$0-slider_release;
#X obj 689 242 s \$0-release;
#X obj 145 37 r \$0-envelope_gui;
#X obj 182 89 s \$0-envelope_out;
#X obj 155 68 t a a;
#X connect 0 0 3 0;
#X connect 2 0 1 0;
#X connect 3 0 4 0;
#X connect 3 1 5 0;
#X connect 3 2 6 0;
#X connect 3 3 7 0;
#X connect 4 0 8 0;
#X connect 5 0 9 0;
#X connect 6 0 10 0;
#X connect 7 0 11 0;
#X connect 12 0 13 0;
#X connect 14 0 15 0;
#X connect 16 0 17 0;
#X connect 18 0 19 0;
#X connect 20 0 22 0;
#X connect 22 0 3 0;
#X connect 22 1 21 0;
#X restore 328 131 pd envelope-gui;
#X text 32 9 GUI control;
#X obj 249 44 r \$0-envelope;
#X connect 0 0 7 0;
#X connect 1 0 8 0;
#X connect 2 0 6 0;
#X connect 3 0 6 1;
#X connect 4 0 6 2;
#X connect 5 0 6 3;
#X connect 6 0 9 1;
#X connect 11 0 9 0;
#X restore 11 161 pd gui;
#N canvas 504 275 684 369 presets 0;
#X msg 28 126 export;
#X obj 297 195 r \$0-ratio;
#X obj 417 195 r \$0-level;
#X obj 544 195 r \$0-envelope;
#X obj 297 286 s \$0-ratio_preset;
#X obj 534 286 s \$0-envelope_preset;
#X obj 232 87 r \$0-level_preset;
#X obj 122 87 r \$0-ratio_preset;
#X obj 417 286 s \$0-level_preset;
#X obj 544 216 route bang;
#X obj 341 87 r \$0-envelope_preset;
#X obj 341 108 message;
#X obj 232 108 message;
#X obj 122 108 message;
#X obj 122 184 presets \$0-ratio_preset \$0-level_preset \$0-envelope_preset
-n 0, f 18;
#A saved 8881-ratio_preset 0.5 || 8881-level_preset 1 || 8881-envelope_preset
5 250 1 1000 || \; -empty- \;;
#X text 14 8 Collect parameters from this oscillator for main Preset
system, f 63;
#X obj 122 289 outlet;
#X obj 28 56 r collect_presets_parameters;
#X obj 122 126 t b f;
#X obj 232 126 t b f;
#X obj 341 126 t b a;
#X obj 149 149 s \$0-ratio_gui;
#X obj 259 149 s \$0-level_gui;
#X obj 368 149 s \$0-envelope_gui;
#X connect 0 0 14 0;
#X connect 1 0 4 0;
#X connect 2 0 8 0;
#X connect 3 0 9 0;
#X connect 6 0 12 0;
#X connect 7 0 13 0;
#X connect 9 1 5 0;
#X connect 10 0 11 0;
#X connect 11 0 20 0;
#X connect 12 0 19 0;
#X connect 13 0 18 0;
#X connect 14 0 16 0;
#X connect 17 0 0 0;
#X connect 18 0 14 0;
#X connect 18 1 21 0;
#X connect 19 0 14 0;
#X connect 19 1 22 0;
#X connect 20 0 14 0;
#X connect 20 1 23 0;
#X restore 269 327 pd presets;
#X obj 20 205 r \$0-envelope;
#X obj 136 205 r \$0-ratio;
#X obj 243 205 r \$0-level;
#N canvas 421 135 450 300 init 0;
#X obj 99 93 initmess \; \$0-oscillator_title label Oscillator\\\ \$1
;
#X text 34 29 Parameters initialization;
#X text 90 70 Oscillator number title;
#X text 90 150 Initial Parameters;
#X obj 99 171 initmess \; \$0-attack 5 \; \$0-decay 250 \; \$0-sustain
1 \; \$0-release 1000 \; \$0-ratio 0.5 \; \$0-level 1;
#X restore 526 34 pd init;
#X obj 308 134 route ratio level env, f 22;
#X text 436 351 Esteban Viveros 2021;
#X obj 383 337 openfile https://github.com/emviveros/DX7_Pd_ELSE -h
DX7_Pd_ELSE github repository;
#X obj 269 388 outlet;
#X obj 40 225 r \$0-envelope_out;
#X obj 156 225 r \$0-ratio_out;
#X obj 263 225 r \$0-level_out;
#X connect 4 0 6 0;
#X connect 6 0 15 0;
#X connect 9 0 6 0;
#X connect 10 0 6 0;
#X connect 15 0 5 0;
#X connect 16 0 17 0;
#X connect 16 0 18 0;
#X connect 17 0 29 0;
#X connect 17 1 18 0;
#X connect 18 0 29 0;
#X connect 24 0 32 0;
#X connect 25 0 4 0;
#X connect 26 0 9 0;
#X connect 27 0 10 0;
#X connect 29 0 20 0;
#X connect 29 1 21 0;
#X connect 29 2 22 0;
#X connect 33 0 4 0;
#X connect 34 0 9 0;
#X connect 35 0 10 0;
#X coords 0 -1 1 1 235 145 2 10 10;
