#N canvas 233 68 630 501 10;
#X declare -path else;
#X obj 45 169 hsl 90 15 5 5000 0 0 \$0-a_snd \$0-a_rcv a -12 8 0 10
-191407 -1 -1 0 1;
#X obj 45 192 hsl 90 15 5 5000 0 0 \$0-d_snd \$0-d_rcv d -12 8 0 10
-191407 -1 -1 437 1;
#X obj 45 215 hsl 90 15 0 1 0 0 \$0-s_snd \$0-s_rcv s -12 8 0 10 -191407
-1 -1 8900 1;
#X obj 45 238 hsl 90 15 5 5000 0 0 \$0-r_snd \$0-r_rcv r -12 8 0 10
-191407 -1 -1 1773 1;
#X obj 38 284 pack2 f f f f;
#X msg 38 305 env \$1 \$2 \$3 \$4;
#X obj 144 467 outlet;
#X obj 154 362 list prepend all toOscs \$1;
#X obj 154 164 vsl 32 70 0 8 0 0 \$0-ratio_slider_snd \$0-ratio_slider_rcv
ratio 1 -9 0 10 -228856 -1 -1 431 1;
#X obj 196 164 vsl 32 70 0 1 0 0 \$0-level_slider_snd \$0-level_slider_rcv
level 1 -9 0 10 -228856 -1 -1 6900 1;
#X msg 154 303 ratio \$1;
#X msg 321 303 level \$1;
#X obj 480 17 declare -path else;
#X floatatom 154 239 5 0 0 0 - #0-ratio_numberbox_rcv #0-ratio_numberbox_snd
;
#X floatatom 196 239 5 0 0 0 - #0-level_numberbox_rcv #0-level_numberbox_snd
;
#X text 28 150 Envelope;
#X obj 154 383 list trim;
#X obj 280 50 inlet;
#X obj 310 131 route \$1;
#X obj 365 131 route allOscs;
#N canvas 0 23 450 300 env 0;
#X obj 143 45 inlet;
#X obj 262 165 s \$0-r_rcv;
#X obj 64 165 s \$0-a_rcv;
#X obj 130 165 s \$0-d_rcv;
#X obj 196 165 s \$0-s_rcv;
#X obj 181 118 unpack f f f f;
#X text 56 185 attack;
#X text 131 189 decay;
#X text 204 187 sustain;
#X text 273 191 release;
#X connect 0 0 5 0;
#X connect 5 0 2 0;
#X connect 5 1 3 0;
#X connect 5 2 4 0;
#X connect 5 3 1 0;
#X restore 442 228 pd env;
#N canvas 830 233 450 300 ratio 0;
#X obj 140 60 inlet;
#X obj 54 224 s \$0-ratio_numberbox_rcv;
#X obj 54 203 r \$0-ratio_slider_snd;
#X obj 245 201 r \$0-ratio_numberbox_snd;
#X msg 245 222 set \$1;
#X obj 245 248 s \$0-ratio_slider_rcv;
#X connect 0 0 1 0;
#X connect 2 0 1 0;
#X connect 3 0 4 0;
#X connect 4 0 5 0;
#X restore 300 228 pd ratio;
#N canvas 703 265 450 300 level 0;
#X obj 140 60 inlet;
#X obj 40 218 s \$0-level_numberbox_rcv;
#X obj 40 197 r \$0-level_slider_snd;
#X msg 245 222 set \$1;
#X obj 245 201 r \$0-level_numberbox_snd;
#X obj 245 248 s \$0-level_slider_rcv;
#X connect 0 0 1 0;
#X connect 2 0 1 0;
#X connect 3 0 5 0;
#X connect 4 0 3 0;
#X restore 371 228 pd level;
#X obj 154 285 r \$0-ratio_numberbox_snd;
#X obj 321 285 r \$0-level_numberbox_snd;
#X obj 444 38 initmess \; \$0-a_rcv 5 \; \$0-d_rcv 250 \; \$0-s_rcv
50 \; \$0-r_rcv 1000 \; \$0-ratio_slider_rcv 0.5 \; \$0-level_slider_rcv
1;
#N canvas 766 177 450 300 presets 0;
#X obj 40 15 inlet;
#X obj 40 264 outlet;
#X msg 75 68 export;
#X obj 75 193 print;
#X obj 75 46 t b b, f 13;
#X msg 150 67 save;
#X obj 75 138 presets -n 1, f 22;
#A saved -empty- \; -empty- \;;
#X msg 211 99 open;
#X msg 223 49 args \$0-preset_ratio \$0-preset_level \$0-\$0-preset_envelope
, f 22;
#X connect 0 0 4 0;
#X connect 2 0 6 0;
#X connect 4 0 2 0;
#X connect 4 1 5 0;
#X connect 5 0 6 0;
#X connect 6 0 3 0;
#X connect 7 0 6 0;
#X connect 8 0 6 0;
#X restore 319 435 pd presets;
#X obj 154 404 t a b, f 28;
#X obj 19 126 cnv 15 15 15 empty \$0-oscillator_title Oscillator\ 1
0 9 0 12 -262144 -1 0;
#X obj 10 83 initmess \; \$0-oscillator_title label Oscillator\\\ \$1
;
#X obj 310 172 route ratio level env id, f 47;
#X obj 509 257 message \$1 \$0;
#X obj 509 278 outlet;
#X connect 0 0 4 0;
#X connect 1 0 4 1;
#X connect 2 0 4 2;
#X connect 3 0 4 3;
#X connect 4 0 5 0;
#X connect 5 0 7 0;
#X connect 7 0 16 0;
#X connect 10 0 7 0;
#X connect 11 0 7 0;
#X connect 16 0 27 0;
#X connect 17 0 18 0;
#X connect 17 0 19 0;
#X connect 18 0 30 0;
#X connect 18 1 19 0;
#X connect 19 0 30 0;
#X connect 23 0 10 0;
#X connect 24 0 11 0;
#X connect 27 0 6 0;
#X connect 30 0 21 0;
#X connect 30 1 22 0;
#X connect 30 2 20 0;
#X connect 30 3 31 0;
#X connect 31 0 32 0;
#X coords 0 -1 1 1 235 145 2 10 120;
