#N canvas 373 133 367 348 12;
#N canvas 1 115 210 245 list-drip 0;
#X obj 42 39 inlet;
#X obj 42 154 list store;
#X obj 42 85 until;
#X obj 42 108 f;
#X obj 72 108 + 1;
#X msg 42 131 get \$1 1;
#X obj 85 86 0;
#X obj 42 177 outlet;
#X obj 109 177 outlet;
#X obj 42 62 t b b a;
#X connect 0 0 9 0;
#X connect 1 0 7 0;
#X connect 1 1 8 0;
#X connect 1 1 2 1;
#X connect 2 0 3 0;
#X connect 3 0 5 0;
#X connect 3 0 4 0;
#X connect 4 0 3 1;
#X connect 5 0 1 0;
#X connect 6 0 3 1;
#X connect 9 0 2 0;
#X connect 9 1 6 0;
#X connect 9 2 1 1;
#X restore 68 89 pd list-drip;
#N canvas 1 169 210 245 list-drip 0;
#X obj 42 39 inlet;
#X obj 42 154 list store;
#X obj 42 85 until;
#X obj 42 108 f;
#X obj 72 108 + 1;
#X msg 42 131 get \$1 1;
#X obj 85 86 0;
#X obj 42 177 outlet;
#X obj 109 177 outlet;
#X obj 42 62 t b b a;
#X obj 116 39 inlet;
#X connect 0 0 9 0;
#X connect 1 0 7 0;
#X connect 1 1 8 0;
#X connect 1 1 2 1;
#X connect 2 0 3 0;
#X connect 3 0 5 0;
#X connect 3 0 4 0;
#X connect 4 0 3 1;
#X connect 5 0 1 0;
#X connect 6 0 3 1;
#X connect 9 0 2 0;
#X connect 9 1 6 0;
#X connect 9 2 1 1;
#X connect 10 0 2 1;
#X restore 68 182 pd list-drip;
#X obj 68 158 list;
#X obj 68 205 sel;
#X obj 149 205 f;
#X obj 68 135 t b f;
#N canvas 1 169 210 245 list-drip 0;
#X obj 42 39 inlet;
#X obj 42 154 list store;
#X obj 42 85 until;
#X obj 42 108 f;
#X obj 72 108 + 1;
#X msg 42 131 get \$1 1;
#X obj 85 86 0;
#X obj 42 177 outlet;
#X obj 109 177 outlet;
#X obj 42 62 t b b a;
#X obj 116 39 inlet;
#X connect 0 0 9 0;
#X connect 1 0 7 0;
#X connect 1 1 8 0;
#X connect 1 1 2 1;
#X connect 2 0 3 0;
#X connect 3 0 5 0;
#X connect 3 0 4 0;
#X connect 4 0 3 1;
#X connect 5 0 1 0;
#X connect 6 0 3 1;
#X connect 9 0 2 0;
#X connect 9 1 6 0;
#X connect 9 2 1 1;
#X connect 10 0 2 1;
#X restore 188 182 pd list-drip;
#X obj 188 158 list;
#X obj 68 112 route float symbol;
#X obj 188 135 t b s;
#X obj 269 205 symbol;
#X obj 188 205 sel s;
#X obj 45 66 t b a b;
#X obj 45 251 list store;
#X msg 149 228 append \$1;
#X obj 45 274 outlet;
#X obj 213 43 inlet;
#X obj 45 43 inlet;
#X connect 0 0 8 0;
#X connect 1 0 3 0;
#X connect 1 1 4 0;
#X connect 2 0 1 0;
#X connect 3 0 1 1;
#X connect 4 0 14 0;
#X connect 5 0 2 0;
#X connect 5 1 3 1;
#X connect 5 1 4 1;
#X connect 6 0 11 0;
#X connect 6 1 10 0;
#X connect 7 0 6 0;
#X connect 8 0 5 0;
#X connect 8 1 9 0;
#X connect 9 0 7 0;
#X connect 9 1 10 1;
#X connect 9 1 11 1;
#X connect 10 0 14 0;
#X connect 11 0 6 1;
#X connect 12 0 13 0;
#X connect 12 1 0 0;
#X connect 12 2 13 1;
#X connect 13 0 15 0;
#X connect 14 0 13 0;
#X connect 16 0 7 1;
#X connect 16 0 2 1;
#X connect 17 0 12 0;
