#N canvas 44 102 1205 580 10;
#X declare -path else;
#X declare -path ./abs;
#X obj 1051 60 declare -path else;
#X obj 1045 41 declare -path ./abs;
#X obj 669 145 notein;
#X obj 669 176 pack f f;
#X obj 669 197 else/voices 16 -list;
#X obj 818 386 clone dx7.mono 16;
#X obj 818 437 out~;
#X floatatom 1003 314 5 0 1 1 feedback_(0-1) - -;
#X floatatom 837 297 5 0 32 0 - - -;
#X msg 837 317 all algorithm \$1;
#X msg 1003 334 all feedback \$1;
#X obj 731 235 r \$0-dx7_interface;
#X obj 18 57 controls_oscillator 1;
#X obj 257 57 controls_oscillator 2;
#X obj 18 207 controls_oscillator 3;
#X obj 257 207 controls_oscillator 4;
#X obj 18 356 controls_oscillator 5;
#X obj 257 356 controls_oscillator 6;
#X obj 18 515 s \$0-dx7_interface;
#X obj 257 515 s \$0-dx7_interface;
#X obj 18 24 r \$0-to_interface;
#X obj 257 24 r \$0-to_interface;
#X obj 521 177 bng 25 250 50 0 empty empty randomize 28 7 0 12 -260097
-1 -1;
#N canvas 293 309 850 300 randomization 0;
#X obj 27 21 inlet;
#X obj 67 82 t b b b, f 55;
#X obj 394 106 t b b b b b b, f 61;
#X obj 394 128 t2 bang 6;
#N canvas 310 211 942 462 randomize_oscilator 0;
#X obj 27 21 inlet;
#X obj 843 26 inlet;
#X obj 344 414 outlet;
#X obj 27 79 chance 70;
#X msg 27 100 1;
#X obj 78 173 pack, f 9;
#X obj 288 95 chance 50;
#X obj 379 131 chance 50;
#X msg 379 152 1;
#X msg 430 152 0.5;
#X obj 344 200 pack, f 9;
#X msg 344 221 \$2 level \$1;
#X obj 578 73 t b b b b, f 46;
#X text 734 29 oscillator number;
#X text 588 54 envelope;
#X text 591 91 a;
#X text 681 91 d;
#X text 764 91 s;
#X text 859 90 r;
#X obj 696 275 pack f f f f f;
#X msg 529 172 5;
#X obj 529 151 chance 78;
#X obj 580 171 rand.i 2000;
#X obj 669 150 pow 3;
#X obj 669 171 * 3000;
#X obj 669 129 rand.f 0 1;
#X obj 851 149 * 3000;
#X obj 851 128 rand.f 0 1;
#X msg 696 296 \$5 env \$1 \$2 \$3 \$4;
#X msg 78 194 \$2 ratio \$1;
#X obj 760 129 rand.i 0 1;
#X obj 288 150 rand.f 0 1;
#X obj 78 99 rand.f 0 8;
#X connect 0 0 3 0;
#X connect 0 0 12 0;
#X connect 0 0 6 0;
#X connect 1 0 5 1;
#X connect 1 0 10 1;
#X connect 1 0 19 4;
#X connect 3 0 4 0;
#X connect 3 1 32 0;
#X connect 4 0 5 0;
#X connect 5 0 29 0;
#X connect 6 0 31 0;
#X connect 6 1 7 0;
#X connect 7 0 8 0;
#X connect 7 1 9 0;
#X connect 8 0 10 0;
#X connect 9 0 10 0;
#X connect 10 0 11 0;
#X connect 11 0 2 0;
#X connect 12 0 21 0;
#X connect 12 1 25 0;
#X connect 12 2 30 0;
#X connect 12 3 27 0;
#X connect 19 0 28 0;
#X connect 20 0 19 0;
#X connect 21 0 20 0;
#X connect 21 1 22 0;
#X connect 22 0 19 0;
#X connect 23 0 24 0;
#X connect 24 0 19 1;
#X connect 25 0 23 0;
#X connect 26 0 19 3;
#X connect 27 0 26 0;
#X connect 28 0 2 0;
#X connect 29 0 2 0;
#X connect 30 0 19 2;
#X connect 31 0 10 0;
#X connect 32 0 5 0;
#X restore 494 188 pd randomize_oscilator;
#X obj 757 128 t2 bang 1;
#X obj 684 128 t2 bang 2;
#X obj 611 128 t2 bang 3;
#X obj 539 128 t2 bang 4;
#X obj 466 128 t2 bang 5;
#X obj 494 262 outlet;
#X obj 67 115 rand.i 1 32;
#X obj 230 262 outlet;
#X obj 67 262 outlet;
#X obj 230 119 chance 75;
#X msg 230 140 0;
#X obj 281 140 rand.f 0 1;
#X connect 0 0 1 0;
#X connect 1 0 11 0;
#X connect 1 1 14 0;
#X connect 1 2 2 0;
#X connect 2 0 3 0;
#X connect 2 1 9 0;
#X connect 2 2 8 0;
#X connect 2 3 7 0;
#X connect 2 4 6 0;
#X connect 2 5 5 0;
#X connect 3 0 4 0;
#X connect 3 1 4 1;
#X connect 4 0 10 0;
#X connect 5 0 4 0;
#X connect 5 1 4 1;
#X connect 6 0 4 0;
#X connect 6 1 4 1;
#X connect 7 0 4 0;
#X connect 7 1 4 1;
#X connect 8 0 4 0;
#X connect 8 1 4 1;
#X connect 9 0 4 0;
#X connect 9 1 4 1;
#X connect 11 0 13 0;
#X connect 14 0 15 0;
#X connect 14 1 16 0;
#X connect 15 0 12 0;
#X connect 16 0 12 0;
#X restore 927 224 pd randomization;
#X f 26;
#X obj 1080 253 s \$0-to_interface;
#X obj 1015 21 canvas.setname \$0-parent;
#X obj 816 134 t b b, f 19;
#X obj 816 177 s \$0-parent;
#X msg 816 156 dirty 0;
#N canvas 305 153 525 461 PRESETS 0;
#X msg 80 120 open;
#X obj 21 38 hradio 15 1 0 8 \$0-radio_0_out \$0-radio_0 empty 0 -8
0 10 -174763 -1 -1 1;
#N canvas 159 268 568 508 shift 0;
#X msg 167 304 save;
#X msg 323 209 load;
#X obj 136 354 else/insert;
#X obj 257 89 keyname;
#X obj 296 111 select Shift_L;
#X msg 296 133 1;
#X msg 377 132 0;
#X obj 281 160 &&;
#X obj 305 182 sel 1 0;
#X obj 126 454 outlet;
#N canvas 82 213 554 495 load_preset_gui_control 0;
#X obj 49 30 inlet;
#N canvas 141 130 450 300 set_title 0;
#X obj 91 33 inlet;
#X obj 113 235 s \$0-canvas_preset_behavior;
#X obj 135 101 t b b;
#X msg 162 123 label load\ preset;
#X msg 135 150 color #ffffff #000000 #000000;
#X connect 0 0 2 0;
#X connect 2 0 4 0;
#X connect 2 1 3 0;
#X connect 3 0 1 0;
#X connect 4 0 1 0;
#X restore 111 456 pd set_title;
#X f 14;
#N canvas 0 23 450 300 send_to_all 0;
#X obj 105 72 inlet;
#X obj 124 136 t a a a a, f 21;
#X obj 124 218 s \$0-radio_3;
#X obj 165 197 s \$0-radio_2;
#X obj 206 177 s \$0-radio_1;
#X obj 247 157 s \$0-radio_0;
#X connect 0 0 1 0;
#X connect 1 0 2 0;
#X connect 1 1 3 0;
#X connect 1 2 4 0;
#X connect 1 3 5 0;
#X restore 128 424 pd send_to_all;
#X obj 155 266 route 0 1 2 3;
#X obj 394 317 s \$0-radio_3;
#X obj 315 317 s \$0-radio_2;
#X obj 236 317 s \$0-radio_1;
#X obj 155 317 s \$0-radio_0;
#X obj 155 217 f;
#X obj 94 157 t b b b f;
#X obj 155 245 list append color #aaaaaa #000000 #000000;
#X msg 128 388 color #aaaaaa #aaaaaa #000000;
#X obj 151 95 div 8;
#X text 198 94 <-- line selected;
#X obj 94 75 route load;
#X obj 94 123 v \$0-line_selected;
#X connect 0 0 14 0;
#X connect 3 0 7 0;
#X connect 3 1 6 0;
#X connect 3 2 5 0;
#X connect 3 3 4 0;
#X connect 8 0 10 0;
#X connect 9 0 8 0;
#X connect 9 1 1 0;
#X connect 9 2 11 0;
#X connect 9 3 8 1;
#X connect 10 0 3 0;
#X connect 11 0 2 0;
#X connect 12 0 15 0;
#X connect 12 0 9 0;
#X connect 14 0 15 0;
#X connect 14 1 12 0;
#X connect 15 0 9 0;
#X restore 300 320 pd load_preset_gui_control;
#N canvas 82 87 578 536 save_preset_gui_control 0;
#X obj 45 21 inlet;
#X obj 95 75 route save;
#N canvas 0 23 450 300 set_title 0;
#X obj 91 33 inlet;
#X obj 113 235 s \$0-canvas_preset_behavior;
#X msg 135 150 color #ffffff #000000 #ff5050;
#X obj 135 101 t b b;
#X msg 162 123 label save\ preset;
#X connect 0 0 3 0;
#X connect 2 0 1 0;
#X connect 3 0 2 0;
#X connect 3 1 4 0;
#X connect 4 0 1 0;
#X restore 112 456 pd set_title;
#X f 14;
#X obj 152 95 div 8;
#X text 199 94 <-- line selected;
#N canvas 0 23 450 300 send_to_all 0;
#X obj 105 72 inlet;
#X obj 124 136 t a a a a, f 21;
#X obj 124 218 s \$0-radio_3;
#X obj 165 197 s \$0-radio_2;
#X obj 206 177 s \$0-radio_1;
#X obj 247 157 s \$0-radio_0;
#X connect 0 0 1 0;
#X connect 1 0 2 0;
#X connect 1 1 3 0;
#X connect 1 2 4 0;
#X connect 1 3 5 0;
#X restore 129 424 pd send_to_all;
#X obj 156 266 route 0 1 2 3;
#X obj 394 317 s \$0-radio_3;
#X obj 315 317 s \$0-radio_2;
#X obj 236 317 s \$0-radio_1;
#X obj 156 317 s \$0-radio_0;
#X msg 129 388 color #ff5050 #ff5050 #000000;
#X obj 156 217 f;
#X obj 156 245 list append color #ff5050 #000000 #000000;
#X obj 95 157 t b b b f;
#X obj 95 120 v \$0-line_selected;
#X connect 0 0 1 0;
#X connect 1 0 15 0;
#X connect 1 1 3 0;
#X connect 3 0 15 0;
#X connect 3 0 14 0;
#X connect 6 0 10 0;
#X connect 6 1 9 0;
#X connect 6 2 8 0;
#X connect 6 3 7 0;
#X connect 11 0 5 0;
#X connect 12 0 13 0;
#X connect 13 0 6 0;
#X connect 14 0 12 0;
#X connect 14 1 2 0;
#X connect 14 2 11 0;
#X connect 14 3 12 1;
#X connect 15 0 14 0;
#X restore 230 416 pd save_preset_gui_control;
#N canvas 199 202 574 300 preset_selected 0;
#X obj 247 266 outlet;
#X obj 64 39 r \$0-radio_0_out;
#X obj 179 39 r \$0-radio_1_out;
#X obj 295 39 r \$0-radio_2_out;
#X obj 410 39 r \$0-radio_3_out;
#X obj 179 60 + 8;
#X obj 295 60 + 16;
#X obj 410 60 + 24;
#X connect 1 0 0 0;
#X connect 2 0 5 0;
#X connect 3 0 6 0;
#X connect 4 0 7 0;
#X connect 5 0 0 0;
#X connect 6 0 0 0;
#X connect 7 0 0 0;
#X restore 96 45 pd preset_selected;
#X obj 136 116 t f f;
#X obj 230 384 spigot;
#X obj 300 270 spigot;
#X obj 333 251 == 0;
#X obj 263 359 == 1;
#X connect 0 0 2 1;
#X connect 0 0 11 0;
#X connect 1 0 2 1;
#X connect 1 0 10 0;
#X connect 2 0 9 0;
#X connect 3 0 7 0;
#X connect 3 1 4 0;
#X connect 4 0 5 0;
#X connect 4 1 6 0;
#X connect 5 0 7 1;
#X connect 6 0 7 1;
#X connect 7 0 8 0;
#X connect 7 0 16 0;
#X connect 7 0 17 0;
#X connect 8 0 0 0;
#X connect 8 1 1 0;
#X connect 12 0 13 0;
#X connect 13 0 2 0;
#X connect 13 1 14 0;
#X connect 13 1 15 0;
#X connect 14 0 11 0;
#X connect 15 0 10 0;
#X connect 16 0 15 1;
#X connect 17 0 14 1;
#X restore 12 115 pd shift;
#X obj 21 53 hradio 15 1 0 8 \$0-radio_1_out \$0-radio_1 empty 0 -8
0 10 -174763 -174763 -1 2;
#X obj 21 68 hradio 15 1 0 8 \$0-radio_2_out \$0-radio_2 empty 0 -8
0 10 -174763 -174763 -1 1;
#X obj 21 83 hradio 15 1 0 8 \$0-radio_3_out \$0-radio_3 empty 0 -8
0 10 -174763 -174763 -1 6;
#X obj 21 19 cnv 15 15 15 empty \$0-canvas_preset_behavior load\ preset
0 8 0 12 -262144 -1 0;
#X obj 184 33 r \$0-dx7_interface;
#N canvas 565 160 659 300 presets_receive 0;
#X obj 27 17 inlet;
#X obj 59 71 route all;
#X obj 59 92 route toOscs;
#X obj 59 157 route 1 2 3 4 5 6, f 95;
#N canvas 607 273 627 505 osc1_preset 0;
#X obj 147 37 inlet;
#X obj 193 133 route ratio level env;
#X obj 44 241 r \$0-ratio_osc1;
#X obj 370 242 r \$0-envelope_osc1;
#X msg 85 319 1 ratio \$1;
#X msg 236 322 1 level \$1;
#X obj 252 443 s \$0-to_interface;
#X obj 390 291 message;
#X obj 204 241 r \$0-level_osc1;
#X msg 390 371 1 env \$1 \$2 \$3 \$4;
#X floatatom 236 283 5 0 0 0 - - -;
#X floatatom 85 276 5 0 0 0 - - -;
#X obj 85 296 change;
#X obj 236 302 change;
#X obj 390 312 unpack f f f f, f 30;
#X obj 390 333 change;
#X obj 449 333 change;
#X obj 508 333 change;
#X obj 559 333 change;
#X obj 391 353 pack f f f f, f 29;
#X connect 0 0 1 0;
#X connect 1 0 11 0;
#X connect 1 1 10 0;
#X connect 1 2 7 0;
#X connect 2 0 11 0;
#X connect 3 0 7 0;
#X connect 4 0 6 0;
#X connect 5 0 6 0;
#X connect 7 0 14 0;
#X connect 8 0 10 0;
#X connect 9 0 6 0;
#X connect 10 0 13 0;
#X connect 11 0 12 0;
#X connect 12 0 4 0;
#X connect 13 0 5 0;
#X connect 14 0 15 0;
#X connect 14 1 16 0;
#X connect 14 2 17 0;
#X connect 14 3 18 0;
#X connect 15 0 19 0;
#X connect 16 0 19 1;
#X connect 17 0 19 2;
#X connect 18 0 19 3;
#X connect 19 0 9 0;
#X restore 49 201 pd osc1_preset;
#N canvas 607 273 627 505 osc2_preset 0;
#X obj 147 37 inlet;
#X obj 193 133 route ratio level env;
#X obj 252 443 s \$0-to_interface;
#X obj 390 291 message;
#X floatatom 236 283 5 0 0 0 - - -;
#X floatatom 85 276 5 0 0 0 - - -;
#X obj 85 296 change;
#X obj 236 302 change;
#X obj 390 312 unpack f f f f, f 30;
#X obj 390 333 change;
#X obj 449 333 change;
#X obj 508 333 change;
#X obj 559 333 change;
#X obj 391 353 pack f f f f, f 29;
#X obj 44 241 r \$0-ratio_osc2;
#X obj 204 241 r \$0-level_osc2;
#X obj 370 242 r \$0-envelope_osc2;
#X msg 390 371 2 env \$1 \$2 \$3 \$4;
#X msg 85 319 2 ratio \$1;
#X msg 236 322 2 level \$1;
#X connect 0 0 1 0;
#X connect 1 0 5 0;
#X connect 1 1 4 0;
#X connect 1 2 3 0;
#X connect 3 0 8 0;
#X connect 4 0 7 0;
#X connect 5 0 6 0;
#X connect 6 0 18 0;
#X connect 7 0 19 0;
#X connect 8 0 9 0;
#X connect 8 1 10 0;
#X connect 8 2 11 0;
#X connect 8 3 12 0;
#X connect 9 0 13 0;
#X connect 10 0 13 1;
#X connect 11 0 13 2;
#X connect 12 0 13 3;
#X connect 13 0 17 0;
#X connect 14 0 5 0;
#X connect 15 0 4 0;
#X connect 16 0 3 0;
#X connect 17 0 2 0;
#X connect 18 0 2 0;
#X connect 19 0 2 0;
#X restore 149 201 pd osc2_preset;
#N canvas 607 273 627 505 osc3_preset 0;
#X obj 147 37 inlet;
#X obj 193 133 route ratio level env;
#X obj 252 443 s \$0-to_interface;
#X obj 390 291 message;
#X floatatom 236 283 5 0 0 0 - - -;
#X floatatom 85 276 5 0 0 0 - - -;
#X obj 85 296 change;
#X obj 236 302 change;
#X obj 390 312 unpack f f f f, f 30;
#X obj 390 333 change;
#X obj 449 333 change;
#X obj 508 333 change;
#X obj 559 333 change;
#X obj 391 353 pack f f f f, f 29;
#X obj 44 241 r \$0-ratio_osc3;
#X obj 204 241 r \$0-level_osc3;
#X obj 370 242 r \$0-envelope_osc3;
#X msg 390 371 3 env \$1 \$2 \$3 \$4;
#X msg 85 319 3 ratio \$1;
#X msg 236 322 3 level \$1;
#X connect 0 0 1 0;
#X connect 1 0 5 0;
#X connect 1 1 4 0;
#X connect 1 2 3 0;
#X connect 3 0 8 0;
#X connect 4 0 7 0;
#X connect 5 0 6 0;
#X connect 6 0 18 0;
#X connect 7 0 19 0;
#X connect 8 0 9 0;
#X connect 8 1 10 0;
#X connect 8 2 11 0;
#X connect 8 3 12 0;
#X connect 9 0 13 0;
#X connect 10 0 13 1;
#X connect 11 0 13 2;
#X connect 12 0 13 3;
#X connect 13 0 17 0;
#X connect 14 0 5 0;
#X connect 15 0 4 0;
#X connect 16 0 3 0;
#X connect 17 0 2 0;
#X connect 18 0 2 0;
#X connect 19 0 2 0;
#X restore 249 201 pd osc3_preset;
#N canvas 607 273 627 505 osc4_preset 0;
#X obj 147 37 inlet;
#X obj 193 133 route ratio level env;
#X obj 252 443 s \$0-to_interface;
#X obj 390 291 message;
#X floatatom 236 283 5 0 0 0 - - -;
#X floatatom 85 276 5 0 0 0 - - -;
#X obj 85 296 change;
#X obj 236 302 change;
#X obj 390 312 unpack f f f f, f 30;
#X obj 390 333 change;
#X obj 449 333 change;
#X obj 508 333 change;
#X obj 559 333 change;
#X obj 391 353 pack f f f f, f 29;
#X obj 44 241 r \$0-ratio_osc4;
#X obj 204 241 r \$0-level_osc4;
#X obj 370 242 r \$0-envelope_osc4;
#X msg 390 371 4 env \$1 \$2 \$3 \$4;
#X msg 85 319 4 ratio \$1;
#X msg 236 322 4 level \$1;
#X connect 0 0 1 0;
#X connect 1 0 5 0;
#X connect 1 1 4 0;
#X connect 1 2 3 0;
#X connect 3 0 8 0;
#X connect 4 0 7 0;
#X connect 5 0 6 0;
#X connect 6 0 18 0;
#X connect 7 0 19 0;
#X connect 8 0 9 0;
#X connect 8 1 10 0;
#X connect 8 2 11 0;
#X connect 8 3 12 0;
#X connect 9 0 13 0;
#X connect 10 0 13 1;
#X connect 11 0 13 2;
#X connect 12 0 13 3;
#X connect 13 0 17 0;
#X connect 14 0 5 0;
#X connect 15 0 4 0;
#X connect 16 0 3 0;
#X connect 17 0 2 0;
#X connect 18 0 2 0;
#X connect 19 0 2 0;
#X restore 349 201 pd osc4_preset;
#N canvas 607 273 627 505 osc5_preset 0;
#X obj 147 37 inlet;
#X obj 193 133 route ratio level env;
#X obj 252 443 s \$0-to_interface;
#X obj 390 291 message;
#X floatatom 236 283 5 0 0 0 - - -;
#X floatatom 85 276 5 0 0 0 - - -;
#X obj 85 296 change;
#X obj 236 302 change;
#X obj 390 312 unpack f f f f, f 30;
#X obj 390 333 change;
#X obj 449 333 change;
#X obj 508 333 change;
#X obj 559 333 change;
#X obj 391 353 pack f f f f, f 29;
#X obj 44 241 r \$0-ratio_osc5;
#X obj 204 241 r \$0-level_osc5;
#X obj 370 242 r \$0-envelope_osc5;
#X msg 390 371 5 env \$1 \$2 \$3 \$4;
#X msg 85 319 5 ratio \$1;
#X msg 236 322 5 level \$1;
#X connect 0 0 1 0;
#X connect 1 0 5 0;
#X connect 1 1 4 0;
#X connect 1 2 3 0;
#X connect 3 0 8 0;
#X connect 4 0 7 0;
#X connect 5 0 6 0;
#X connect 6 0 18 0;
#X connect 7 0 19 0;
#X connect 8 0 9 0;
#X connect 8 1 10 0;
#X connect 8 2 11 0;
#X connect 8 3 12 0;
#X connect 9 0 13 0;
#X connect 10 0 13 1;
#X connect 11 0 13 2;
#X connect 12 0 13 3;
#X connect 13 0 17 0;
#X connect 14 0 5 0;
#X connect 15 0 4 0;
#X connect 16 0 3 0;
#X connect 17 0 2 0;
#X connect 18 0 2 0;
#X connect 19 0 2 0;
#X restore 449 201 pd osc5_preset;
#N canvas 607 273 627 505 osc6_preset 0;
#X obj 147 37 inlet;
#X obj 193 133 route ratio level env;
#X obj 252 443 s \$0-to_interface;
#X obj 390 291 message;
#X floatatom 236 283 5 0 0 0 - - -;
#X floatatom 85 276 5 0 0 0 - - -;
#X obj 85 296 change;
#X obj 236 302 change;
#X obj 390 312 unpack f f f f, f 30;
#X obj 390 333 change;
#X obj 449 333 change;
#X obj 508 333 change;
#X obj 559 333 change;
#X obj 391 353 pack f f f f, f 29;
#X obj 44 241 r \$0-ratio_osc6;
#X obj 204 241 r \$0-level_osc6;
#X obj 370 242 r \$0-envelope_osc6;
#X msg 390 371 6 env \$1 \$2 \$3 \$4;
#X msg 85 319 6 ratio \$1;
#X msg 236 322 6 level \$1;
#X connect 0 0 1 0;
#X connect 1 0 5 0;
#X connect 1 1 4 0;
#X connect 1 2 3 0;
#X connect 3 0 8 0;
#X connect 4 0 7 0;
#X connect 5 0 6 0;
#X connect 6 0 18 0;
#X connect 7 0 19 0;
#X connect 8 0 9 0;
#X connect 8 1 10 0;
#X connect 8 2 11 0;
#X connect 8 3 12 0;
#X connect 9 0 13 0;
#X connect 10 0 13 1;
#X connect 11 0 13 2;
#X connect 12 0 13 3;
#X connect 13 0 17 0;
#X connect 14 0 5 0;
#X connect 15 0 4 0;
#X connect 16 0 3 0;
#X connect 17 0 2 0;
#X connect 18 0 2 0;
#X connect 19 0 2 0;
#X restore 549 201 pd osc6_preset;
#X connect 0 0 1 0;
#X connect 1 0 2 0;
#X connect 2 0 3 0;
#X connect 3 0 4 0;
#X connect 3 1 5 0;
#X connect 3 2 6 0;
#X connect 3 3 7 0;
#X connect 3 4 8 0;
#X connect 3 5 9 0;
#X restore 198 68 pd presets_receive;
#X obj 80 224 presets \\\$0-ratio_osc1 \\\$0-level_osc1 \\\$0-envelope_osc1
\\\$0-ratio_osc2 \\\$0-level_osc2 \\\$0-envelope_osc2 \\\$0-ratio_osc3
\\\$0-level_osc3 \\\$0-envelope_osc3 \\\$0-ratio_osc4 \\\$0-level_osc4
\\\$0-envelope_osc4 \\\$0-ratio_osc5 \\\$0-level_osc5 \\\$0-envelope_osc5
\\\$0-ratio_osc6 \\\$0-level_osc6 \\\$0-envelope_osc6 \\\$0-algorithm
\\\$0-feedback;
#A saved \\\$0-ratio_osc1 1 || \\\$0-level_osc1 0.5 || \\\$0-envelope_osc1
5 12.4762 1 1033.8 || \\\$0-ratio_osc2 1 || \\\$0-level_osc2 1 || \\\$0-envelope_osc2
799 1164 1 2947.31 || \\\$0-ratio_osc3 1 || \\\$0-level_osc3 1 || \\\$0-envelope_osc3
5 0.0799561 1 2092.26 || \\\$0-ratio_osc4 0.226461 || \\\$0-level_osc4
1 || \\\$0-envelope_osc4 588 2648.75 1 2462.59 || \\\$0-ratio_osc5
1 || \\\$0-level_osc5 1 || \\\$0-envelope_osc5 5 676.03 1 1997.41 ||
\\\$0-ratio_osc6 0.267276 || \\\$0-level_osc6 0.5 || \\\$0-envelope_osc6
5 130.162 0 2003.38 || \\\$0-algorithm 14 || \\\$0-feedback 0 || \;
\\\$0-ratio_osc1 0.452295 || \\\$0-level_osc1 0.5 || \\\$0-envelope_osc1
29 174.742 0 2624.41 || \\\$0-ratio_osc2 1 || \\\$0-level_osc2 1 ||
\\\$0-envelope_osc2 5 817.816 0 243.287 || \\\$0-ratio_osc3 1 || \\\$0-level_osc3
1 || \\\$0-envelope_osc3 322 14.6519 0 2692.93 || \\\$0-ratio_osc4
1 || \\\$0-level_osc4 1 || \\\$0-envelope_osc4 5 1873.6 1 1452.98 ||
\\\$0-ratio_osc5 1 || \\\$0-level_osc5 1 || \\\$0-envelope_osc5 397.865
1127.47 0.157303 1662.3 || \\\$0-ratio_osc6 0.399364 || \\\$0-level_osc6
1 || \\\$0-envelope_osc6 1541 171.94 1 2591.22 || \\\$0-algorithm 28
|| \\\$0-feedback 0 || \; \\\$0-ratio_osc1 0.95143 || \\\$0-level_osc1
4.93271 || \\\$0-envelope_osc1 1018 2172.65 0 2680.93 || \\\$0-ratio_osc2
0.533805 || \\\$0-level_osc2 0.5 || \\\$0-envelope_osc2 1816 2475.94
0 2805.53 || \\\$0-ratio_osc3 1 || \\\$0-level_osc3 0.5 || \\\$0-envelope_osc3
5 220.579 0 898.381 || \\\$0-ratio_osc4 1 || \\\$0-level_osc4 0.5 ||
\\\$0-envelope_osc4 1990 3.4557 1 2666.09 || \\\$0-ratio_osc5 0.157206
|| \\\$0-level_osc5 5.43696 || \\\$0-envelope_osc5 5 385.467 1 1421.05
|| \\\$0-ratio_osc6 0.945067 || \\\$0-level_osc6 4.79677 || \\\$0-envelope_osc6
1831 407.558 1 2452.79 || \\\$0-algorithm 5 || \\\$0-feedback 0 ||
\; \\\$0-ratio_osc1 0.19349 || \\\$0-level_osc1 7.17109 || \\\$0-envelope_osc1
5 2575.33 0 368.922 || \\\$0-ratio_osc2 1 || \\\$0-level_osc2 2.92607
|| \\\$0-envelope_osc2 5 979.572 1 1592 || \\\$0-ratio_osc3 0.168545
|| \\\$0-level_osc3 1.08448 || \\\$0-envelope_osc3 5 520.109 0 1004.31
|| \\\$0-ratio_osc4 1 || \\\$0-level_osc4 0.5 || \\\$0-envelope_osc4
5 189.343 0 1067.07 || \\\$0-ratio_osc5 1 || \\\$0-level_osc5 1 ||
\\\$0-envelope_osc5 5 0.206512 0 1662.3 || \\\$0-ratio_osc6 1 || \\\$0-level_osc6
1 || \\\$0-envelope_osc6 5 134.539 1 1337.56 || \\\$0-algorithm 21
|| \\\$0-feedback 0 || \; \\\$0-ratio_osc1 1 || \\\$0-level_osc1 0.5
|| \\\$0-envelope_osc1 5 77.771 0 430.841 || \\\$0-ratio_osc2 1 ||
\\\$0-level_osc2 7.10882 || \\\$0-envelope_osc2 1449 566.684 0 2652.5
|| \\\$0-ratio_osc3 1 || \\\$0-level_osc3 5.0403 || \\\$0-envelope_osc3
247 1275.21 1 2604.56 || \\\$0-ratio_osc4 1 || \\\$0-level_osc4 1 ||
\\\$0-envelope_osc4 5 318.989 0 1618.71 || \\\$0-ratio_osc5 1 || \\\$0-level_osc5
7.12588 || \\\$0-envelope_osc5 5 1434.13 1 972.263 || \\\$0-ratio_osc6
0.451224 || \\\$0-level_osc6 6.41476 || \\\$0-envelope_osc6 5 10.4649
1 117.735 || \\\$0-algorithm 16 || \\\$0-feedback 0 || \; -empty- \;
-empty- \; -empty- \; -empty- \; -empty- \; -empty- \; -empty- \; -empty-
\; -empty- \; -empty- \; -empty- \; -empty- \; -empty- \; -empty- \;
-empty- \; -empty- \; -empty- \; -empty- \; -empty- \; -empty- \; -empty-
\; -empty- \; -empty- \; -empty- \; -empty- \; -empty- \; -empty- \;
-empty- \; -empty- \; -empty- \; -empty- \; -empty- \; -empty- \; -empty-
\; -empty- \; -empty- \; -empty- \; -empty- \; -empty- \; -empty- \;
-empty- \; -empty- \; -empty- \; -empty- \; -empty- \; -empty- \; -empty-
\; -empty- \; -empty- \; -empty- \; -empty- \; -empty- \; -empty- \;
-empty- \; -empty- \; -empty- \; -empty- \; -empty- \; -empty- \;;
#X connect 0 0 9 0;
#X connect 2 0 9 0;
#X connect 7 0 8 0;
#X coords 0 -1 1 1 145 100 2 10 10;
#X restore 500 57 pd PRESETS;
#X text 953 170 behavior introduced by experimental version of [presets]
, f 36;
#X text 870 156 <-- hack to avoid need to save patch every change.
;
#X text 1040 512 Esteban Viveros 2021;
#X obj 988 495 openfile https://github.com/emviveros/DX7_Pd_ELSE -h
DX7_Pd_ELSE github repository;
#X obj 837 267 r \$0-algorithm;
#X obj 1013 292 r \$0-feedback;
#X obj 818 407 outlet~;
#X text 47 30 LiVoDX7;
#X connect 2 0 3 0;
#X connect 2 1 3 1;
#X connect 3 0 4 0;
#X connect 4 0 5 0;
#X connect 5 0 36 0;
#X connect 5 0 6 0;
#X connect 7 0 10 0;
#X connect 8 0 9 0;
#X connect 9 0 5 0;
#X connect 10 0 5 0;
#X connect 11 0 5 0;
#X connect 12 0 18 0;
#X connect 13 0 19 0;
#X connect 14 0 18 0;
#X connect 15 0 19 0;
#X connect 16 0 18 0;
#X connect 17 0 19 0;
#X connect 20 0 12 0;
#X connect 20 0 16 0;
#X connect 20 0 14 0;
#X connect 21 0 13 0;
#X connect 21 0 17 0;
#X connect 21 0 15 0;
#X connect 22 0 26 0;
#X connect 23 0 8 0;
#X connect 23 1 7 0;
#X connect 23 2 24 0;
#X connect 26 0 28 0;
#X connect 26 1 23 0;
#X connect 28 0 27 0;
#X connect 34 0 8 0;
#X connect 35 0 7 0;
#X coords 0 -1 1 1 660 500 2 10 20;
