#N struct 1011-cell float x float y float cellsize float color;
#N canvas 36 59 844 499 10;
#X declare -path else;
#X obj 700 15 declare -path else;
#X obj 428 296 out~;
#N canvas 633 293 450 300 envelope 0;
#X obj 42 28 hsl 90 15 5 5000 0 0 empty empty a -12 8 0 10 -228856
-1 -1 0 1;
#X obj 42 48 hsl 90 15 5 5000 0 0 empty empty d -12 8 0 10 -228856
-1 -1 0 1;
#X obj 42 68 hsl 90 15 0 1 0 0 empty empty s -12 8 0 10 -228856 -1
-1 0 1;
#X obj 42 88 hsl 90 15 5 5000 0 0 empty empty r -12 8 0 10 -228856
-1 -1 0 1;
#X obj 38 143 pack2 f f f f;
#X msg 38 164 env \$1 \$2 \$3 \$4;
#X obj 38 185 outlet;
#X connect 0 0 4 0;
#X connect 1 0 4 1;
#X connect 2 0 4 2;
#X connect 3 0 4 3;
#X connect 4 0 5 0;
#X connect 5 0 6 0;
#X coords 0 -1 1 1 140 100 1 10 10;
#X restore 624 73 pd envelope;
#X obj 65 98 phaseMod_osc~ 1;
#X obj 65 31 r~ \$0-osc1_in;
#X obj 65 129 s~ \$0-osc1_out;
#X obj 215 31 r~ \$0-osc2_in;
#X obj 215 98 phaseMod_osc~ 2;
#X obj 215 129 s~ \$0-osc2_out;
#X obj 65 191 r~ \$0-osc3_in;
#X obj 65 258 phaseMod_osc~ 3;
#X obj 65 289 s~ \$0-osc3_out;
#X obj 215 191 r~ \$0-osc4_in;
#X obj 215 258 phaseMod_osc~ 4;
#X obj 215 289 s~ \$0-osc4_out;
#X obj 65 341 r~ \$0-osc5_in;
#X obj 65 408 phaseMod_osc~ 5;
#X obj 65 439 s~ \$0-osc5_out;
#X obj 215 341 r~ \$0-osc6_in;
#X obj 215 408 phaseMod_osc~ 6;
#X obj 215 439 s~ \$0-osc6_out;
#X obj 634 245 notein;
#X obj 634 276 pack;
#X msg 634 297 allOscs \$1 \$2;
#X obj 624 338 s \$0-osc_msgs;
#X obj 428 258 receive~ \$0-output;
#N canvas 423 346 801 421 routings 0;
#X obj 48 24 r~ \$0-osc1_out;
#X obj 151 24 r~ \$0-osc2_out;
#X obj 248 24 r~ \$0-osc3_out;
#X obj 347 24 r~ \$0-osc4_out;
#X obj 447 24 r~ \$0-osc5_out;
#X obj 545 24 r~ \$0-osc6_out;
#N canvas 306 141 745 300 routing1 0;
#X obj 37 37 inlet~;
#X obj 52 115 *~;
#X obj 52 238 outlet~;
#X obj 132 238 outlet~;
#X obj 222 238 outlet~;
#X obj 302 238 outlet~;
#X obj 382 238 outlet~;
#X obj 462 238 outlet~;
#X obj 75 72 r \$0-r11;
#X obj 132 115 *~;
#X obj 222 115 *~;
#X obj 302 115 *~;
#X obj 382 115 *~;
#X obj 462 115 *~;
#X obj 155 72 r \$0-r12;
#X obj 245 72 r \$0-r13;
#X obj 325 72 r \$0-r14;
#X obj 405 72 r \$0-r15;
#X obj 485 72 r \$0-r16;
#X obj 612 238 outlet~;
#X obj 612 115 *~;
#X obj 635 72 r \$0-r1out;
#X obj 52 182 *~;
#X obj 71 147 r \$0-feedback;
#X obj 75 90 else/f2s~ 45;
#X obj 155 90 else/f2s~ 45;
#X obj 245 90 else/f2s~ 45;
#X obj 325 90 else/f2s~ 45;
#X obj 405 90 else/f2s~ 45;
#X obj 485 90 else/f2s~ 45;
#X obj 635 90 else/f2s~ 45;
#X obj 71 164 else/f2s~ 45;
#X connect 0 0 1 0;
#X connect 0 0 9 0;
#X connect 0 0 12 0;
#X connect 0 0 11 0;
#X connect 0 0 10 0;
#X connect 0 0 20 0;
#X connect 0 0 13 0;
#X connect 1 0 22 0;
#X connect 8 0 24 0;
#X connect 9 0 3 0;
#X connect 10 0 4 0;
#X connect 11 0 5 0;
#X connect 12 0 6 0;
#X connect 13 0 7 0;
#X connect 14 0 25 0;
#X connect 15 0 26 0;
#X connect 16 0 27 0;
#X connect 17 0 28 0;
#X connect 18 0 29 0;
#X connect 20 0 19 0;
#X connect 21 0 30 0;
#X connect 22 0 2 0;
#X connect 23 0 31 0;
#X connect 24 0 1 1;
#X connect 25 0 9 1;
#X connect 26 0 10 1;
#X connect 27 0 11 1;
#X connect 28 0 12 1;
#X connect 29 0 13 1;
#X connect 30 0 20 1;
#X connect 31 0 22 1;
#X restore 48 208 pd routing1;
#X obj 48 306 s~ \$0-osc1_in;
#X obj 151 306 s~ \$0-osc2_in;
#X obj 248 306 s~ \$0-osc3_in;
#X obj 347 306 s~ \$0-osc4_in;
#X obj 447 306 s~ \$0-osc5_in;
#X obj 545 306 s~ \$0-osc6_in;
#N canvas 333 146 726 300 routing2 0;
#X obj 37 37 inlet~;
#X obj 52 115 *~;
#X obj 52 238 outlet~;
#X obj 132 238 outlet~;
#X obj 222 238 outlet~;
#X obj 302 238 outlet~;
#X obj 382 238 outlet~;
#X obj 462 238 outlet~;
#X obj 132 115 *~;
#X obj 222 115 *~;
#X obj 302 115 *~;
#X obj 382 115 *~;
#X obj 462 115 *~;
#X obj 75 72 r \$0-r21;
#X obj 155 72 r \$0-r22;
#X obj 245 72 r \$0-r23;
#X obj 325 72 r \$0-r24;
#X obj 405 72 r \$0-r25;
#X obj 485 72 r \$0-r26;
#X obj 612 238 outlet~;
#X obj 612 115 *~;
#X obj 132 182 *~;
#X obj 151 146 r \$0-feedback;
#X obj 635 72 r \$0-r2out;
#X obj 75 90 else/f2s~ 45;
#X obj 155 90 else/f2s~ 45;
#X obj 151 164 else/f2s~ 45;
#X obj 245 90 else/f2s~ 45;
#X obj 325 90 else/f2s~ 45;
#X obj 405 90 else/f2s~ 45;
#X obj 484 90 else/f2s~ 45;
#X obj 635 90 else/f2s~ 45;
#X connect 0 0 1 0;
#X connect 0 0 8 0;
#X connect 0 0 12 0;
#X connect 0 0 11 0;
#X connect 0 0 10 0;
#X connect 0 0 9 0;
#X connect 0 0 20 0;
#X connect 1 0 2 0;
#X connect 8 0 21 0;
#X connect 9 0 4 0;
#X connect 10 0 5 0;
#X connect 11 0 6 0;
#X connect 12 0 7 0;
#X connect 13 0 24 0;
#X connect 14 0 25 0;
#X connect 15 0 27 0;
#X connect 16 0 28 0;
#X connect 17 0 29 0;
#X connect 18 0 30 0;
#X connect 20 0 19 0;
#X connect 21 0 3 0;
#X connect 22 0 26 0;
#X connect 23 0 31 0;
#X connect 24 0 1 1;
#X connect 25 0 8 1;
#X connect 26 0 21 1;
#X connect 27 0 9 1;
#X connect 28 0 10 1;
#X connect 29 0 11 1;
#X connect 30 0 12 1;
#X connect 31 0 20 1;
#X restore 151 208 pd routing2;
#N canvas 333 146 739 300 routing3 0;
#X obj 37 37 inlet~;
#X obj 52 115 *~;
#X obj 52 238 outlet~;
#X obj 132 238 outlet~;
#X obj 222 238 outlet~;
#X obj 302 238 outlet~;
#X obj 382 238 outlet~;
#X obj 462 238 outlet~;
#X obj 132 115 *~;
#X obj 222 115 *~;
#X obj 302 115 *~;
#X obj 382 115 *~;
#X obj 462 115 *~;
#X obj 75 72 r \$0-r31;
#X obj 155 72 r \$0-r32;
#X obj 245 72 r \$0-r33;
#X obj 325 72 r \$0-r34;
#X obj 405 72 r \$0-r35;
#X obj 485 72 r \$0-r36;
#X obj 612 238 outlet~;
#X obj 612 115 *~;
#X obj 222 182 *~;
#X obj 240 145 r \$0-feedback;
#X obj 635 72 r \$0-r3out;
#X obj 75 90 else/f2s~ 45;
#X obj 155 90 else/f2s~ 45;
#X obj 245 90 else/f2s~ 45;
#X obj 325 90 else/f2s~ 45;
#X obj 405 90 else/f2s~ 45;
#X obj 485 90 else/f2s~ 45;
#X obj 635 90 else/f2s~ 45;
#X obj 240 164 else/f2s~ 45;
#X connect 0 0 1 0;
#X connect 0 0 8 0;
#X connect 0 0 12 0;
#X connect 0 0 11 0;
#X connect 0 0 10 0;
#X connect 0 0 9 0;
#X connect 0 0 20 0;
#X connect 1 0 2 0;
#X connect 8 0 3 0;
#X connect 9 0 21 0;
#X connect 10 0 5 0;
#X connect 11 0 6 0;
#X connect 12 0 7 0;
#X connect 13 0 24 0;
#X connect 14 0 25 0;
#X connect 15 0 26 0;
#X connect 16 0 27 0;
#X connect 17 0 28 0;
#X connect 18 0 29 0;
#X connect 20 0 19 0;
#X connect 21 0 4 0;
#X connect 22 0 31 0;
#X connect 23 0 30 0;
#X connect 24 0 1 1;
#X connect 25 0 8 1;
#X connect 26 0 9 1;
#X connect 27 0 10 1;
#X connect 28 0 11 1;
#X connect 29 0 12 1;
#X connect 30 0 20 1;
#X connect 31 0 21 1;
#X restore 248 208 pd routing3;
#N canvas 333 146 732 300 routing4 0;
#X obj 37 37 inlet~;
#X obj 52 115 *~;
#X obj 52 238 outlet~;
#X obj 132 238 outlet~;
#X obj 222 238 outlet~;
#X obj 302 238 outlet~;
#X obj 382 238 outlet~;
#X obj 462 238 outlet~;
#X obj 132 115 *~;
#X obj 222 115 *~;
#X obj 302 115 *~;
#X obj 382 115 *~;
#X obj 462 115 *~;
#X obj 75 72 r \$0-r41;
#X obj 155 72 r \$0-r42;
#X obj 245 72 r \$0-r43;
#X obj 325 72 r \$0-r44;
#X obj 405 72 r \$0-r45;
#X obj 485 72 r \$0-r46;
#X obj 612 238 outlet~;
#X obj 612 115 *~;
#X obj 302 182 *~;
#X obj 320 144 r \$0-feedback;
#X obj 635 72 r \$0-r4out;
#X obj 75 90 else/f2s~ 45;
#X obj 155 90 else/f2s~ 45;
#X obj 245 90 else/f2s~ 45;
#X obj 325 90 else/f2s~ 45;
#X obj 405 90 else/f2s~ 45;
#X obj 485 90 else/f2s~ 45;
#X obj 635 90 else/f2s~ 45;
#X obj 320 162 else/f2s~ 45;
#X connect 0 0 1 0;
#X connect 0 0 8 0;
#X connect 0 0 12 0;
#X connect 0 0 11 0;
#X connect 0 0 10 0;
#X connect 0 0 9 0;
#X connect 0 0 20 0;
#X connect 1 0 2 0;
#X connect 8 0 3 0;
#X connect 9 0 4 0;
#X connect 10 0 21 0;
#X connect 11 0 6 0;
#X connect 12 0 7 0;
#X connect 13 0 24 0;
#X connect 14 0 25 0;
#X connect 15 0 26 0;
#X connect 16 0 27 0;
#X connect 17 0 28 0;
#X connect 18 0 29 0;
#X connect 20 0 19 0;
#X connect 21 0 5 0;
#X connect 22 0 31 0;
#X connect 23 0 30 0;
#X connect 24 0 1 1;
#X connect 25 0 8 1;
#X connect 26 0 9 1;
#X connect 27 0 10 1;
#X connect 28 0 11 1;
#X connect 29 0 12 1;
#X connect 30 0 20 1;
#X connect 31 0 21 1;
#X restore 347 208 pd routing4;
#N canvas 333 146 771 300 routing5 0;
#X obj 37 37 inlet~;
#X obj 52 115 *~;
#X obj 52 238 outlet~;
#X obj 132 238 outlet~;
#X obj 222 238 outlet~;
#X obj 302 238 outlet~;
#X obj 382 238 outlet~;
#X obj 462 238 outlet~;
#X obj 132 115 *~;
#X obj 222 115 *~;
#X obj 302 115 *~;
#X obj 382 115 *~;
#X obj 462 115 *~;
#X obj 75 72 r \$0-r51;
#X obj 155 72 r \$0-r52;
#X obj 245 72 r \$0-r53;
#X obj 325 72 r \$0-r54;
#X obj 405 72 r \$0-r55;
#X obj 485 72 r \$0-r56;
#X obj 612 238 outlet~;
#X obj 612 115 *~;
#X obj 382 182 *~;
#X obj 399 144 r \$0-feedback;
#X obj 635 72 r \$0-r5out;
#X obj 75 90 else/f2s~ 45;
#X obj 155 90 else/f2s~ 45;
#X obj 245 90 else/f2s~ 45;
#X obj 325 90 else/f2s~ 45;
#X obj 405 90 else/f2s~ 45;
#X obj 485 90 else/f2s~ 45;
#X obj 635 90 else/f2s~ 45;
#X obj 399 164 else/f2s~ 45;
#X connect 0 0 1 0;
#X connect 0 0 8 0;
#X connect 0 0 12 0;
#X connect 0 0 11 0;
#X connect 0 0 10 0;
#X connect 0 0 9 0;
#X connect 0 0 20 0;
#X connect 1 0 2 0;
#X connect 8 0 3 0;
#X connect 9 0 4 0;
#X connect 10 0 5 0;
#X connect 11 0 21 0;
#X connect 12 0 7 0;
#X connect 13 0 24 0;
#X connect 14 0 25 0;
#X connect 15 0 26 0;
#X connect 16 0 27 0;
#X connect 17 0 28 0;
#X connect 18 0 29 0;
#X connect 20 0 19 0;
#X connect 21 0 6 0;
#X connect 22 0 31 0;
#X connect 23 0 30 0;
#X connect 24 0 1 1;
#X connect 25 0 8 1;
#X connect 26 0 9 1;
#X connect 27 0 10 1;
#X connect 28 0 11 1;
#X connect 29 0 12 1;
#X connect 30 0 20 1;
#X connect 31 0 21 1;
#X restore 447 208 pd routing5;
#N canvas 333 146 747 300 routing6 0;
#X obj 37 37 inlet~;
#X obj 52 115 *~;
#X obj 52 238 outlet~;
#X obj 132 238 outlet~;
#X obj 222 238 outlet~;
#X obj 302 238 outlet~;
#X obj 382 238 outlet~;
#X obj 462 238 outlet~;
#X obj 132 115 *~;
#X obj 222 115 *~;
#X obj 302 115 *~;
#X obj 382 115 *~;
#X obj 462 115 *~;
#X obj 75 72 r \$0-r61;
#X obj 155 72 r \$0-r62;
#X obj 245 72 r \$0-r63;
#X obj 325 72 r \$0-r64;
#X obj 405 72 r \$0-r65;
#X obj 485 72 r \$0-r66;
#X obj 612 238 outlet~;
#X obj 612 115 *~;
#X obj 462 182 *~;
#X obj 480 141 r \$0-feedback;
#X obj 635 72 r \$0-r6out;
#X obj 75 90 else/f2s~ 45;
#X obj 155 90 else/f2s~ 45;
#X obj 245 90 else/f2s~ 45;
#X obj 325 90 else/f2s~ 45;
#X obj 405 90 else/f2s~ 45;
#X obj 485 90 else/f2s~ 45;
#X obj 635 90 else/f2s~ 45;
#X obj 480 161 else/f2s~ 45;
#X connect 0 0 1 0;
#X connect 0 0 8 0;
#X connect 0 0 12 0;
#X connect 0 0 11 0;
#X connect 0 0 10 0;
#X connect 0 0 9 0;
#X connect 0 0 20 0;
#X connect 1 0 2 0;
#X connect 8 0 3 0;
#X connect 9 0 4 0;
#X connect 10 0 5 0;
#X connect 11 0 6 0;
#X connect 12 0 21 0;
#X connect 13 0 24 0;
#X connect 14 0 25 0;
#X connect 15 0 26 0;
#X connect 16 0 27 0;
#X connect 17 0 28 0;
#X connect 18 0 29 0;
#X connect 20 0 19 0;
#X connect 21 0 7 0;
#X connect 22 0 31 0;
#X connect 23 0 30 0;
#X connect 24 0 1 1;
#X connect 25 0 8 1;
#X connect 26 0 9 1;
#X connect 27 0 10 1;
#X connect 28 0 11 1;
#X connect 29 0 12 1;
#X connect 30 0 20 1;
#X connect 31 0 21 1;
#X restore 545 208 pd routing6;
#X obj 654 306 s~ \$0-output;
#X connect 0 0 6 0;
#X connect 1 0 13 0;
#X connect 2 0 14 0;
#X connect 3 0 15 0;
#X connect 4 0 16 0;
#X connect 5 0 17 0;
#X connect 6 0 7 0;
#X connect 6 1 8 0;
#X connect 6 2 9 0;
#X connect 6 3 10 0;
#X connect 6 4 11 0;
#X connect 6 5 12 0;
#X connect 6 6 18 0;
#X connect 13 0 7 0;
#X connect 13 1 8 0;
#X connect 13 2 9 0;
#X connect 13 3 10 0;
#X connect 13 4 11 0;
#X connect 13 5 12 0;
#X connect 13 6 18 0;
#X connect 14 0 7 0;
#X connect 14 1 8 0;
#X connect 14 2 9 0;
#X connect 14 3 10 0;
#X connect 14 4 11 0;
#X connect 14 5 12 0;
#X connect 14 6 18 0;
#X connect 15 0 7 0;
#X connect 15 1 8 0;
#X connect 15 2 9 0;
#X connect 15 3 10 0;
#X connect 15 4 11 0;
#X connect 15 5 12 0;
#X connect 15 6 18 0;
#X connect 16 0 7 0;
#X connect 16 1 8 0;
#X connect 16 2 9 0;
#X connect 16 3 10 0;
#X connect 16 4 11 0;
#X connect 16 5 12 0;
#X connect 16 6 18 0;
#X connect 17 0 7 0;
#X connect 17 1 8 0;
#X connect 17 2 9 0;
#X connect 17 3 10 0;
#X connect 17 4 11 0;
#X connect 17 5 12 0;
#X connect 17 6 18 0;
#X restore 423 119 pd routings;
#X floatatom 427 179 5 0 0 1 feedback_(0-1) - -;
#X obj 427 199 s \$0-feedback;
#X floatatom 423 76 5 0 32 0 - - -;
#N canvas 350 72 626 357 algorithms 0;
#X obj 71 17 inlet;
#X floatatom 126 68 5 0 0 0 - - -;
#N canvas 18 84 703 549 DX7-OscillatorsRoutings 0;
#X obj 148 163 else/mtx.ctl 7 6 45 0 0 0 0 0 0 0 0 0 0 0 0;
#X text 435 64 main-out, f 1;
#X text 389 19 Oscillator -6, f 1;
#X text 344 19 Oscillator -5, f 1;
#X text 302 19 Oscillator -4, f 1;
#X text 257 19 Oscillator -3, f 1;
#X text 212 19 Oscillator -2, f 1;
#X text 167 19 Oscillator -1, f 1;
#X text 67 178 Oscillator 1;
#X text 67 222 Oscillator 2;
#X text 66 269 Oscillator 3;
#X text 66 313 Oscillator 4;
#X text 66 362 Oscillator 5;
#X text 66 406 Oscillator 6;
#X obj 158 452 print;
#X msg 109 67 export;
#X obj 281 498 text set \$0-routings;
#X msg 74 121 clear;
#X floatatom 418 467 5 0 0 0 - - -;
#X obj 495 219 text define -k \$0-routings;
#A set 0 0 0 0 0 0 0 0 0 0 0 0 0 0 0 0 0 0 0 0 0 0 0 0 0 0 0 0 0 0
0 0 0 0 0 0 0 0 0 0 0 0 \; 0 0 0 0 0 0 1 1 0 0 0 0 0 0 0 0 0 0 0 0
1 0 0 1 0 0 0 0 0 0 0 1 0 0 0 0 0 0 0 1 1 0 \; 0 0 0 0 0 0 1 1 1 0
0 0 0 0 0 0 0 0 0 0 1 0 0 1 0 0 0 0 0 0 0 1 0 0 0 0 0 0 0 1 0 0 \;
0 0 0 0 0 0 1 1 0 0 0 0 0 0 0 1 0 0 0 0 0 0 0 0 0 0 0 1 0 0 0 1 0 0
0 0 0 0 0 1 1 0 \; 0 0 0 0 0 0 1 1 0 0 0 0 0 0 0 1 0 0 0 0 0 0 0 0
0 0 1 1 0 0 0 1 0 0 0 0 0 0 0 1 0 0 \; 0 0 0 0 0 0 1 1 0 0 0 0 0 0
0 0 0 0 0 0 1 0 0 1 0 0 0 0 0 0 0 0 0 0 1 0 0 0 0 1 1 0 \; 0 0 0 0
0 0 1 1 0 0 0 0 0 0 0 0 0 0 0 0 1 0 0 1 0 0 0 0 0 0 0 0 0 1 1 0 0 0
0 1 0 0 \; 0 0 0 0 0 0 1 1 0 0 0 0 0 0 0 0 0 0 0 0 1 0 0 1 0 0 0 0
0 0 1 0 0 0 0 0 0 0 0 1 1 0 \; 0 0 0 0 0 0 1 1 0 0 0 0 0 0 0 0 0 0
0 0 1 0 0 1 1 0 0 0 0 0 1 0 0 0 0 0 0 0 0 1 0 0 \; 0 0 0 0 0 0 1 1
1 0 0 0 0 0 0 0 0 0 0 0 1 0 0 1 0 0 0 0 0 0 1 0 0 0 0 0 0 0 0 1 0 0
\; 0 0 0 0 0 0 1 1 0 0 0 0 0 0 0 1 1 0 0 0 0 0 0 0 0 0 0 1 0 0 0 1
0 0 0 0 0 0 1 0 0 0 \; 0 0 0 0 0 0 1 1 0 0 0 0 0 0 0 1 0 0 0 0 0 0
0 0 0 0 0 1 0 0 0 1 0 0 0 0 0 0 1 0 1 0 \; 0 0 0 0 0 0 1 1 1 0 0 0
0 0 0 0 0 0 0 0 1 0 0 1 0 0 0 0 0 0 1 0 0 0 0 0 0 1 0 0 0 0 \; 0 0
0 0 0 0 1 1 0 0 0 0 0 0 0 0 0 0 0 0 1 0 0 1 0 0 0 0 0 0 1 0 0 0 0 0
0 1 0 0 1 0 \; 0 0 0 0 0 0 1 1 0 0 0 0 0 0 0 0 0 0 0 0 1 0 0 1 0 0
0 0 0 0 0 1 0 0 0 0 0 0 1 0 1 0 \; 0 0 0 0 0 0 1 1 1 0 0 0 0 0 0 0
0 0 0 0 1 0 0 1 0 0 0 0 0 0 0 1 0 0 0 0 0 0 1 0 0 0 \; 0 0 0 0 0 0
1 1 0 0 0 0 0 0 1 0 0 0 0 0 0 0 0 1 0 0 0 0 1 0 0 0 0 0 0 0 0 0 0 1
1 0 \; 0 0 0 0 0 0 1 1 1 0 0 0 0 0 1 0 0 0 0 0 0 0 0 1 0 0 0 0 1 0
0 0 0 0 0 0 0 0 0 1 0 0 \; 0 0 0 0 0 0 1 1 0 0 0 0 0 0 1 1 0 0 0 0
0 0 0 1 0 0 0 0 0 0 0 1 0 0 0 0 0 0 0 1 0 0 \; 0 0 0 0 0 0 1 1 0 0
0 0 0 0 0 1 0 0 0 0 0 0 0 0 0 0 0 1 0 0 0 0 0 0 1 0 0 0 1 1 1 0 \;
0 0 0 0 0 0 1 0 0 0 0 0 0 1 1 1 1 0 0 0 0 0 0 0 0 0 0 1 0 0 0 1 0 0
0 0 0 0 1 0 0 0 \; 0 0 0 0 0 0 1 0 0 0 0 0 0 1 1 1 1 0 0 0 0 0 0 0
0 0 0 1 0 0 0 0 0 0 1 0 0 0 1 1 0 0 \; 0 0 0 0 0 0 1 1 0 0 0 0 0 0
0 0 0 0 0 0 1 0 0 0 0 0 0 1 0 0 0 0 0 0 1 0 0 1 1 1 1 0 \; 0 0 0 0
0 0 1 0 0 0 0 0 0 1 0 1 0 0 0 0 0 0 0 0 0 0 0 1 0 0 0 0 0 0 1 0 0 0
1 1 1 0 \; 0 0 0 0 0 0 1 0 0 0 0 0 0 1 0 0 0 0 0 0 1 0 0 0 0 0 0 1
0 0 0 0 0 0 1 0 0 1 1 1 1 0 \; 0 0 0 0 0 0 1 0 0 0 0 0 0 1 0 0 0 0
0 0 1 0 0 0 0 0 0 1 0 0 0 0 0 0 1 0 0 0 1 1 1 0 \; 0 0 0 0 0 0 1 0
0 0 0 0 0 1 0 1 0 0 0 0 0 0 0 0 0 0 0 1 0 0 0 1 0 0 0 0 0 0 1 0 1 0
\; 0 0 0 0 0 0 1 0 0 0 0 0 0 1 0 1 1 0 0 0 0 0 0 0 0 0 0 1 0 0 0 1
0 0 0 0 0 0 1 0 0 0 \; 0 0 0 0 0 0 1 1 0 0 0 0 0 0 0 0 0 0 0 0 1 0
0 1 0 0 0 0 0 0 0 1 1 0 0 0 0 0 0 0 0 1 \; 0 0 0 0 0 0 1 0 0 0 0 0
0 1 0 0 0 0 0 0 1 0 0 1 0 0 0 0 0 0 0 0 0 0 1 0 0 0 0 1 1 0 \; 0 0
0 0 0 0 1 0 0 0 0 0 0 1 0 0 0 0 0 0 1 0 0 1 0 0 0 0 0 0 0 1 1 0 0 0
0 0 0 0 0 1 \; 0 0 0 0 0 0 1 0 0 0 0 0 0 1 0 0 0 0 0 0 1 0 0 0 0 0
0 1 0 0 0 0 0 0 1 0 0 0 0 1 1 0 \; 0 0 0 0 0 0 1 0 0 0 0 0 0 1 0 0
0 0 0 0 1 0 0 0 0 0 0 1 0 0 0 0 0 0 1 0 0 0 0 0 1 1 \;;
#X obj 501 135 else/insert import 0;
#X obj 513 87 text get \$0-routings;
#X floatatom 501 43 5 0 0 0 - - -;
#X msg 48 29 flush;
#X msg 521 181 write -c ./DX7_programs.txt;
#X connect 0 0 14 0;
#X connect 15 0 0 0;
#X connect 17 0 0 0;
#X connect 18 0 16 1;
#X connect 20 0 0 0;
#X connect 21 0 20 0;
#X connect 22 0 21 0;
#X connect 23 0 0 0;
#X connect 24 0 19 0;
#X restore 410 32 pd DX7-OscillatorsRoutings;
#N canvas 0 23 541 491 DX7_programs_retrieve 0;
#X obj 85 22 inlet;
#X obj 131 71 text get \$0-routings;
#X obj 131 92 else/group 7;
#X obj 158 135 else/count 1 6;
#X msg 240 153 reset;
#X obj 131 168 list prepend;
#X obj 131 220 list split 1;
#X msg 274 328 reset;
#X obj 192 310 else/count 1 7;
#X obj 165 246 else/iterate;
#X obj 165 267 t f b;
#X obj 123 332 list prepend;
#X obj 260 214 list split 1;
#X obj 123 366 list prepend;
#X obj 131 113 t l b;
#X obj 131 189 t l l, f 22;
#X obj 113 437 outlet;
#X connect 0 0 1 0;
#X connect 1 0 2 0;
#X connect 2 0 14 0;
#X connect 3 0 5 1;
#X connect 3 1 4 0;
#X connect 4 0 3 0;
#X connect 5 0 15 0;
#X connect 6 1 9 0;
#X connect 7 0 8 0;
#X connect 8 0 11 1;
#X connect 8 1 7 0;
#X connect 9 0 10 0;
#X connect 10 0 11 0;
#X connect 10 1 8 0;
#X connect 11 0 13 0;
#X connect 12 0 13 1;
#X connect 13 0 16 0;
#X connect 14 0 5 0;
#X connect 14 1 3 0;
#X connect 15 0 6 0;
#X connect 15 1 12 0;
#X restore 126 98 pd DX7_programs_retrieve;
#X obj 151 270 spigot 0;
#X obj 248 270 spigot 0;
#X obj 176 160 t l l l, f 17;
#X msg 275 182 \$2;
#X obj 196 251 != 7;
#X obj 293 248 == 7;
#X text 294 200 referent to output connection;
#X text 317 215 if connects to an oscillator or main out, f 22;
#N canvas 0 23 450 300 rout_osc 0;
#X obj 89 50 inlet;
#X obj 103 204 send;
#X obj 113 113 t l l;
#X msg 113 134 \$3;
#X obj 140 134 else/format symbol \$0-r%d%d;
#X connect 0 0 2 0;
#X connect 2 0 3 0;
#X connect 2 1 4 0;
#X connect 3 0 1 0;
#X connect 4 0 1 1;
#X restore 151 291 pd rout_osc;
#N canvas 0 23 450 300 route_out 0;
#X obj 97 57 inlet;
#X obj 143 185 send;
#X obj 143 144 t l l;
#X obj 170 165 else/format symbol \$0-r%dout;
#X msg 143 165 \$2;
#X msg 143 124 \$1 \$3;
#X connect 0 0 5 0;
#X connect 2 0 4 0;
#X connect 2 1 3 0;
#X connect 3 0 1 1;
#X connect 4 0 1 0;
#X connect 5 0 2 0;
#X restore 248 291 pd route_out;
#X connect 0 0 1 0;
#X connect 1 0 3 0;
#X connect 3 0 6 0;
#X connect 4 0 12 0;
#X connect 5 0 13 0;
#X connect 6 0 4 0;
#X connect 6 1 5 0;
#X connect 6 2 7 0;
#X connect 7 0 8 0;
#X connect 7 0 9 0;
#X connect 8 0 4 1;
#X connect 9 0 5 1;
#X restore 423 96 pd algorithms;
#X obj 94 63 r \$0-osc_msgs;
#X obj 244 63 r \$0-osc_msgs;
#X obj 94 223 r \$0-osc_msgs;
#X obj 244 223 r \$0-osc_msgs;
#X obj 94 373 r \$0-osc_msgs;
#X obj 244 373 r \$0-osc_msgs;
#X connect 3 0 5 0;
#X connect 4 0 3 0;
#X connect 6 0 7 0;
#X connect 7 0 8 0;
#X connect 9 0 10 0;
#X connect 10 0 11 0;
#X connect 12 0 13 0;
#X connect 13 0 14 0;
#X connect 15 0 16 0;
#X connect 16 0 17 0;
#X connect 18 0 19 0;
#X connect 19 0 20 0;
#X connect 21 0 22 0;
#X connect 21 1 22 1;
#X connect 22 0 23 0;
#X connect 23 0 24 0;
#X connect 25 0 1 0;
#X connect 27 0 28 0;
#X connect 29 0 30 0;
#X connect 31 0 3 1;
#X connect 32 0 7 1;
#X connect 33 0 10 1;
#X connect 34 0 13 1;
#X connect 35 0 16 1;
#X connect 36 0 19 1;
