#N canvas 67 105 1205 580 10;
#X declare -path else;
#X declare -path ./abs;
#X obj 1051 60 declare -path else;
#X obj 1045 41 declare -path ./abs;
#X obj 541 141 notein;
#X obj 541 172 pack f f;
#X obj 541 193 else/voices 16 -list;
#X obj 541 405 clone dx7.mono 16;
#X obj 541 456 out~;
#X floatatom 845 280 5 0 1 1 feedback_(0-1) - -;
#X floatatom 709 283 5 0 32 0 - - -;
#X msg 709 303 all algorithm \$1;
#X msg 845 300 all feedback \$1;
#X obj 552 260 r \$0-dx7_interface;
#X obj 18 48 controls_oscillator 1;
#X obj 257 48 controls_oscillator 2;
#X obj 18 198 controls_oscillator 3;
#X obj 257 198 controls_oscillator 4;
#X obj 18 347 controls_oscillator 5;
#X obj 257 347 controls_oscillator 6;
#X obj 18 506 s \$0-dx7_interface;
#X obj 257 506 s \$0-dx7_interface;
#X obj 18 15 r \$0-to_interface;
#X obj 257 15 r \$0-to_interface;
#X obj 688 70 bng 25 250 50 0 empty empty randomize 28 7 0 12 -260097
-1 -1;
#N canvas 270 270 850 300 randomization 0;
#X obj 27 21 inlet;
#X obj 67 82 t b b b, f 55;
#X obj 394 106 t b b b b b b, f 61;
#X obj 394 128 t2 bang 6;
#N canvas 265 190 942 462 randomize_oscilator 0;
#X obj 27 21 inlet;
#X obj 843 26 inlet;
#X obj 344 414 outlet;
#X obj 27 79 chance 70;
#X msg 27 100 1;
#X obj 78 99 rand.f 0 1;
#X obj 78 173 pack, f 9;
#X obj 288 95 chance 50;
#X obj 288 150 rand.f 1 8;
#X obj 379 131 chance 50;
#X msg 379 152 1;
#X msg 430 152 0.5;
#X obj 344 200 pack, f 9;
#X msg 344 221 \$2 level \$1;
#X obj 578 73 t b b b b, f 46;
#X text 734 29 oscillator number;
#X text 588 54 envelope;
#X text 591 91 a;
#X text 681 91 d;
#X text 764 91 s;
#X text 859 90 r;
#X obj 696 275 pack f f f f f;
#X msg 529 172 5;
#X obj 529 151 chance 78;
#X obj 580 171 rand.i 2000;
#X obj 669 150 pow 3;
#X obj 669 171 * 3000;
#X obj 669 129 rand.f 0 1;
#X obj 851 149 * 3000;
#X obj 851 128 rand.f 0 1;
#X msg 696 296 \$5 env \$1 \$2 \$3 \$4;
#X msg 78 194 \$2 ratio \$1;
#X obj 760 129 rand.i 0 1;
#X connect 0 0 3 0;
#X connect 0 0 14 0;
#X connect 0 0 7 0;
#X connect 1 0 6 1;
#X connect 1 0 12 1;
#X connect 1 0 21 4;
#X connect 3 0 4 0;
#X connect 3 1 5 0;
#X connect 4 0 6 0;
#X connect 5 0 6 0;
#X connect 6 0 31 0;
#X connect 7 0 8 0;
#X connect 7 1 9 0;
#X connect 8 0 12 0;
#X connect 9 0 10 0;
#X connect 9 1 11 0;
#X connect 10 0 12 0;
#X connect 11 0 12 0;
#X connect 12 0 13 0;
#X connect 13 0 2 0;
#X connect 14 0 23 0;
#X connect 14 1 27 0;
#X connect 14 2 32 0;
#X connect 14 3 29 0;
#X connect 21 0 30 0;
#X connect 22 0 21 0;
#X connect 23 0 22 0;
#X connect 23 1 24 0;
#X connect 24 0 21 0;
#X connect 25 0 26 0;
#X connect 26 0 21 1;
#X connect 27 0 25 0;
#X connect 28 0 21 3;
#X connect 29 0 28 0;
#X connect 30 0 2 0;
#X connect 31 0 2 0;
#X connect 32 0 21 2;
#X restore 494 188 pd randomize_oscilator;
#X obj 757 128 t2 bang 1;
#X obj 684 128 t2 bang 2;
#X obj 611 128 t2 bang 3;
#X obj 539 128 t2 bang 4;
#X obj 466 128 t2 bang 5;
#X obj 494 262 outlet;
#X obj 67 115 rand.i 1 32;
#X obj 230 262 outlet;
#X obj 67 262 outlet;
#X obj 230 119 chance 75;
#X msg 230 140 0;
#X obj 281 140 rand.f 0 1;
#X obj 564 219 print;
#X connect 0 0 1 0;
#X connect 1 0 11 0;
#X connect 1 1 14 0;
#X connect 1 2 2 0;
#X connect 2 0 3 0;
#X connect 2 1 9 0;
#X connect 2 2 8 0;
#X connect 2 3 7 0;
#X connect 2 4 6 0;
#X connect 2 5 5 0;
#X connect 3 0 4 0;
#X connect 3 1 4 1;
#X connect 4 0 10 0;
#X connect 4 0 17 0;
#X connect 5 0 4 0;
#X connect 5 1 4 1;
#X connect 6 0 4 0;
#X connect 6 1 4 1;
#X connect 7 0 4 0;
#X connect 7 1 4 1;
#X connect 8 0 4 0;
#X connect 8 1 4 1;
#X connect 9 0 4 0;
#X connect 9 1 4 1;
#X connect 11 0 13 0;
#X connect 14 0 15 0;
#X connect 14 1 16 0;
#X connect 15 0 12 0;
#X connect 16 0 12 0;
#X restore 799 220 pd randomization;
#X obj 892 239 s \$0-to_interface;
#X obj 1015 21 canvas.setname \$0-parent;
#X obj 688 130 t b b, f 19;
#X obj 688 173 s \$0-parent;
#X msg 688 152 dirty 0;
#X obj 246 541 s \$0-preset_params;
#X obj 485 541 s \$0-preset_params;
#N canvas 369 305 450 300 PRESETS 1;
#X obj 59 68 presets;
#A saved -empty- \; -empty- \; -empty- \; -empty- \; -empty- \; -empty-
\; -empty- \; -empty- \; -empty- \; -empty- \; -empty- \; -empty- \;
-empty- \; -empty- \; -empty- \; -empty- \; -empty- \; -empty- \; -empty-
\; -empty- \; -empty- \; -empty- \; -empty- \; -empty- \; -empty- \;
-empty- \; -empty- \; -empty- \; -empty- \; -empty- \; -empty- \; -empty-
\; -empty- \; -empty- \; -empty- \; -empty- \; -empty- \; -empty- \;
-empty- \; -empty- \; -empty- \; -empty- \; -empty- \; -empty- \; -empty-
\; -empty- \; -empty- \; -empty- \; -empty- \; -empty- \; -empty- \;
-empty- \; -empty- \; -empty- \; -empty- \; -empty- \; -empty- \; -empty-
\; -empty- \; -empty- \; -empty- \; -empty- \; -empty- \; -empty- \;
;
#X restore 1094 91 pd PRESETS;
#X text 742 152 <-- hack to avoid need to save patch every change;
#X text 832 166 behavior introduced by experimental version of [presets]
, f 36;
#X connect 2 0 3 0;
#X connect 2 1 3 1;
#X connect 3 0 4 0;
#X connect 4 0 5 0;
#X connect 5 0 6 0;
#X connect 7 0 10 0;
#X connect 8 0 9 0;
#X connect 9 0 5 0;
#X connect 10 0 5 0;
#X connect 11 0 5 0;
#X connect 12 0 18 0;
#X connect 12 1 29 0;
#X connect 13 0 19 0;
#X connect 13 1 30 0;
#X connect 14 0 18 0;
#X connect 14 1 29 0;
#X connect 15 0 19 0;
#X connect 15 1 30 0;
#X connect 16 0 18 0;
#X connect 16 1 29 0;
#X connect 17 0 19 0;
#X connect 17 1 30 0;
#X connect 20 0 12 0;
#X connect 20 0 16 0;
#X connect 20 0 14 0;
#X connect 21 0 13 0;
#X connect 21 0 17 0;
#X connect 21 0 15 0;
#X connect 22 0 26 0;
#X connect 23 0 8 0;
#X connect 23 1 7 0;
#X connect 23 2 24 0;
#X connect 26 0 28 0;
#X connect 26 1 23 0;
#X connect 28 0 27 0;
