#N canvas 144 75 1007 530 10;
#X declare -path else;
#X declare -path ./abs;
#X obj 874 11 declare -path else;
#X obj 874 32 declare -path ./abs;
#X obj 537 28 notein;
#X obj 537 89 pack f f;
#X obj 537 110 else/voices 16 -list;
#X obj 537 202 clone dx7.mono 16;
#X obj 537 223 out~;
#X floatatom 850 101 5 0 1 1 feedback_(0-1) - -;
#X floatatom 705 100 5 0 32 0 - - -;
#X msg 705 120 all algorithm \$1;
#X msg 850 121 all feedback \$1;
#N canvas 151 51 530 545 interface 0;
#X obj 18 18 controls_oscillator 1;
#X obj 257 18 controls_oscillator 2;
#X obj 18 168 controls_oscillator 3;
#X obj 257 168 controls_oscillator 4;
#X obj 18 317 controls_oscillator 5;
#X obj 257 317 controls_oscillator 6;
#X obj 242 504 outlet;
#X connect 0 0 6 0;
#X connect 1 0 6 0;
#X connect 2 0 6 0;
#X connect 3 0 6 0;
#X connect 4 0 6 0;
#X connect 5 0 6 0;
#X coords 0 -1 1 1 490 460 2 10 10;
#X restore 11 7 pd interface;
#X obj 752 164 r \$0-dx7_interface;
#X obj 11 491 s \$0-dx7_interface;
#X connect 2 0 3 0;
#X connect 2 1 3 1;
#X connect 3 0 4 0;
#X connect 4 0 5 0;
#X connect 5 0 6 0;
#X connect 7 0 10 0;
#X connect 8 0 9 0;
#X connect 9 0 5 0;
#X connect 10 0 5 0;
#X connect 11 0 13 0;
#X connect 12 0 5 0;
