#N canvas 36 59 844 499 10;
#X declare -path else;
#X declare -path ./abs;
#X obj 700 15 declare -path else;
#N canvas 633 293 450 300 envelope 0;
#X obj 42 28 hsl 90 15 5 5000 0 0 empty empty a -12 8 0 10 -228856
-1 -1 0 1;
#X obj 42 48 hsl 90 15 5 5000 0 0 empty empty d -12 8 0 10 -228856
-1 -1 0 1;
#X obj 42 68 hsl 90 15 0 1 0 0 empty empty s -12 8 0 10 -228856 -1
-1 0 1;
#X obj 42 88 hsl 90 15 5 5000 0 0 empty empty r -12 8 0 10 -228856
-1 -1 0 1;
#X obj 38 143 pack2 f f f f;
#X msg 38 164 env \$1 \$2 \$3 \$4;
#X obj 38 185 outlet;
#X connect 0 0 4 0;
#X connect 1 0 4 1;
#X connect 2 0 4 2;
#X connect 3 0 4 3;
#X connect 4 0 5 0;
#X connect 5 0 6 0;
#X coords 0 -1 1 1 140 100 1 10 10;
#X restore 624 73 pd envelope;
#X obj 700 36 declare -path ./abs;
#X obj 65 56 notein;
#X obj 65 117 pack f f;
#X obj 65 138 else/voices 16 -list;
#X obj 65 170 clone dx7.mono 16;
#X obj 65 191 out~;
#X floatatom 378 129 5 0 1 1 feedback_(0-1) - -;
#X floatatom 233 128 5 0 32 0 - - -;
#X msg 233 148 all algorithm \$1;
#X msg 378 149 all feedback \$1;
#X connect 3 0 4 0;
#X connect 3 1 4 1;
#X connect 4 0 5 0;
#X connect 5 0 6 0;
#X connect 6 0 7 0;
#X connect 8 0 11 0;
#X connect 9 0 10 0;
#X connect 10 0 6 0;
#X connect 11 0 6 0;
