#N canvas 537 26 688 473 10;
#X declare -path else;
#X obj 549 13 declare -path else;
#X obj 117 318 *~;
#X obj 359 267 adsr~ 5 500 0.5 1000, f 26;
#X obj 151 27 inlet;
#X obj 161 89 route ratio level env, f 28;
#X obj 117 369 *~;
#X obj 117 410 outlet~;
#X text 146 369 level;
#X obj 434 238 unpack f f f f;
#X obj 326 110 unpack;
#X text 407 71 Incoming parameters:;
#X obj 512 288 tgl 15 0 empty empty empty 17 7 0 10 -262144 -1 -1 0
1;
#X obj 512 308 switch~;
#X obj 359 238 rescale 0 1;
#X obj 161 59 route allOscs;
#X obj 248 59 route \$1;
#X text 521 380 Esteban Viveros 2021;
#X obj 406 400 openfile https://www.youtube.com/watch?v=D_7P3EXEyD8&list=PLqJgTfn3kSMWUAx5NQSl-F29b5Aq_tnlI&index=2
-h from Really Usefull Plugins DX7 Tutorial;
#X obj 17 27 inlet~;
#X text 63 29 mod_freq;
#X text 188 24 Incoming parameters;
#X text 420 89 oscillator number or all oscillators \; notes (note
and vel) \; "ratio" - scaling of note frequency \; "level" - amplitude
\; "env" - envelope settings (ADSR);
#X obj 216 334 f2s~ 45 1;
#X obj 107 263 +~;
#X obj 107 284 cos~;
#X obj 146 241 phasor~;
#X obj 128 166 mtof;
#X obj 146 195 * 1;
#X obj 146 217 f2s~ 45;
#X connect 1 0 5 0;
#X connect 2 0 1 1;
#X connect 2 1 11 0;
#X connect 3 0 14 0;
#X connect 4 0 27 1;
#X connect 4 1 22 0;
#X connect 4 2 8 0;
#X connect 4 3 9 0;
#X connect 5 0 6 0;
#X connect 8 0 2 1;
#X connect 8 1 2 2;
#X connect 8 2 2 3;
#X connect 8 3 2 4;
#X connect 9 0 26 0;
#X connect 9 1 13 0;
#X connect 11 0 12 0;
#X connect 13 0 2 0;
#X connect 14 0 4 0;
#X connect 14 1 15 0;
#X connect 15 0 4 0;
#X connect 18 0 23 0;
#X connect 22 0 5 1;
#X connect 23 0 24 0;
#X connect 24 0 1 0;
#X connect 25 0 23 1;
#X connect 26 0 27 0;
#X connect 27 0 28 0;
#X connect 28 0 25 0;
