#N canvas 0 23 936 545 12;
#X declare -path else;
#X obj 70 229 phaseMod_osc~ 1;
#X obj 64 130 phaseMod_osc~ 2;
#X obj 792 307 notein;
#X obj 792 338 pack;
#X msg 792 359 allOscs \$1 \$2;
#X obj 782 400 s \$0-osc_msgs;
#X obj 752 59 declare -path else;
#X obj 461 401 out~;
#X obj 282 63 r \$0-osc_msgs;
#X obj 104 288 s~ \$0-output;
#X obj 461 363 r~ \$0-output;
#X obj 139 176 display~;
#X obj 248 267 display~;
#X obj 299 117 display;
#X msg 542 178 allOscs ratio 0.5;
#X connect 0 0 12 0;
#X connect 0 0 9 0;
#X connect 1 0 11 0;
#X connect 1 0 0 0;
#X connect 2 0 3 0;
#X connect 2 1 3 1;
#X connect 3 0 4 0;
#X connect 4 0 5 0;
#X connect 8 0 13 0;
#X connect 8 0 1 1;
#X connect 8 0 0 1;
#X connect 10 0 7 0;
#X connect 14 0 4 0;
