#N canvas 665 174 513 358 10;
#X declare -path else;
#X obj 390 7 declare -path else;
#X obj 236 90 inlet~;
#X obj 157 90 inlet~;
#X obj 83 323 outlet~;
#X obj 40 20 inlet~;
#X obj 157 135 clip~ 0 1;
#X text 250 259 Part of ELSE \; https://github.com/porres/pd-else;
#X text 252 241 Alexandre Torres Porres (2018);
#X obj 236 127 clip~ 0 0.98;
#X obj 236 179 expr~ (1 - pow($v1 \, 0.1)) * $f2, f 26;
#N canvas 1032 353 223 206 init 0;
#X obj 84 111 unpack;
#X obj 83 147 outlet;
#X obj 134 149 outlet;
#X obj 84 41 lb -init;
#X obj 84 81 args;
#X connect 0 0 1 0;
#X connect 0 1 2 0;
#X connect 3 0 4 0;
#X connect 4 0 0 0;
#X restore 197 54 pd init;
#X obj 359 34 r pd;
#X obj 389 75 route dsp;
#X obj 389 96 sel 1;
#X text 393 37 Para Camomile;
#X obj 40 179 quantizer~ 0 \$1;
#X obj 83 224 downsample~ 0 \$2;
#X obj 389 156 sr~;
#X obj 389 133 lb -init;
#X connect 1 0 8 0;
#X connect 2 0 5 0;
#X connect 4 0 15 0;
#X connect 5 0 15 1;
#X connect 8 0 9 0;
#X connect 9 0 16 1;
#X connect 10 0 2 0;
#X connect 10 1 1 0;
#X connect 11 0 12 0;
#X connect 12 0 13 0;
#X connect 13 0 18 0;
#X connect 15 0 16 0;
#X connect 16 0 3 0;
#X connect 17 0 9 1;
#X connect 18 0 17 0;
