#N canvas 19 90 1254 627 10;
#X declare -path ./abs;
#X declare -path ./else;
#X declare -path else;
#X obj 702 64 pdcontrol;
#X msg 702 39 dir;
#N canvas 318 223 489 243 worker 0;
#X restore 769 14 pd worker;
#X obj 702 14 loadbang;
#X obj 525 267 tgl 15 0 empty empty empty 17 7 0 10 -262144 -1 -1 1
1;
#X obj 525 287 s state;
#X obj 719 562 s dx7.engine;
#X obj 1114 35 declare -path ./abs;
#X obj 719 181 notein;
#X obj 719 212 pack f f;
#X floatatom 823 438 5 0 1 1 feedback_(0-1) - -;
#X floatatom 769 347 5 0 32 0 - - -;
#X msg 769 367 all algorithm \$1;
#X msg 823 458 all feedback \$1;
#X obj 819 501 r \$0-dx7_interface;
#X obj 18 57 controls_oscillator 1;
#X obj 257 57 controls_oscillator 2;
#X obj 18 207 controls_oscillator 3;
#X obj 257 207 controls_oscillator 4;
#X obj 18 356 controls_oscillator 5;
#X obj 257 356 controls_oscillator 6;
#X obj 18 515 s \$0-dx7_interface;
#X obj 257 515 s \$0-dx7_interface;
#X obj 18 24 r \$0-to_interface;
#X obj 257 24 r \$0-to_interface;
#X obj 521 177 bng 25 250 50 0 empty empty randomize 28 7 0 12 -260097
-1 -1;
#X obj 1031 388 s \$0-to_interface;
#X obj 1084 15 canvas.setname \$0-parent;
#X obj 876 195 t b b, f 19;
#X obj 876 288 s \$0-parent;
#X msg 876 267 dirty 0;
#N canvas 305 153 525 461 PRESETS 0;
#X msg 80 120 open;
#X obj 21 38 hradio 15 1 0 8 \$0-radio_0_out \$0-radio_0 empty 0 -8
0 10 -174763 -1 -1 0;
#N canvas 159 268 568 508 shift 0;
#X msg 167 304 save;
#X msg 323 209 load;
#X obj 136 354 else/insert;
#X obj 257 89 keyname;
#X obj 296 111 select Shift_L;
#X msg 296 133 1;
#X msg 377 132 0;
#X obj 281 160 &&;
#X obj 305 182 sel 1 0;
#X obj 126 454 outlet;
#N canvas 82 213 554 495 load_preset_gui_control 0;
#X obj 49 30 inlet;
#N canvas 141 130 450 300 set_title 0;
#X obj 91 33 inlet;
#X obj 113 235 s \$0-canvas_preset_behavior;
#X obj 135 101 t b b;
#X msg 162 123 label load\ preset;
#X msg 135 150 color #ffffff #000000 #000000;
#X connect 0 0 2 0;
#X connect 2 0 4 0;
#X connect 2 1 3 0;
#X connect 3 0 1 0;
#X connect 4 0 1 0;
#X restore 111 456 pd set_title;
#X f 14;
#N canvas 0 23 450 300 send_to_all 0;
#X obj 105 72 inlet;
#X obj 124 136 t a a a a, f 21;
#X obj 124 218 s \$0-radio_3;
#X obj 165 197 s \$0-radio_2;
#X obj 206 177 s \$0-radio_1;
#X obj 247 157 s \$0-radio_0;
#X connect 0 0 1 0;
#X connect 1 0 2 0;
#X connect 1 1 3 0;
#X connect 1 2 4 0;
#X connect 1 3 5 0;
#X restore 128 424 pd send_to_all;
#X obj 155 266 route 0 1 2 3;
#X obj 394 317 s \$0-radio_3;
#X obj 315 317 s \$0-radio_2;
#X obj 236 317 s \$0-radio_1;
#X obj 155 317 s \$0-radio_0;
#X obj 155 217 f;
#X obj 94 157 t b b b f;
#X obj 155 245 list append color #aaaaaa #000000 #000000;
#X msg 128 388 color #aaaaaa #aaaaaa #000000;
#X obj 151 95 div 8;
#X text 198 94 <-- line selected;
#X obj 94 75 route load;
#X obj 94 123 v \$0-line_selected;
#X connect 0 0 14 0;
#X connect 3 0 7 0;
#X connect 3 1 6 0;
#X connect 3 2 5 0;
#X connect 3 3 4 0;
#X connect 8 0 10 0;
#X connect 9 0 8 0;
#X connect 9 1 1 0;
#X connect 9 2 11 0;
#X connect 9 3 8 1;
#X connect 10 0 3 0;
#X connect 11 0 2 0;
#X connect 12 0 15 0;
#X connect 12 0 9 0;
#X connect 14 0 15 0;
#X connect 14 1 12 0;
#X connect 15 0 9 0;
#X restore 300 320 pd load_preset_gui_control;
#N canvas 82 87 578 536 save_preset_gui_control 0;
#X obj 45 21 inlet;
#X obj 95 75 route save;
#N canvas 0 23 450 300 set_title 0;
#X obj 91 33 inlet;
#X obj 113 235 s \$0-canvas_preset_behavior;
#X msg 135 150 color #ffffff #000000 #ff5050;
#X obj 135 101 t b b;
#X msg 162 123 label save\ preset;
#X connect 0 0 3 0;
#X connect 2 0 1 0;
#X connect 3 0 2 0;
#X connect 3 1 4 0;
#X connect 4 0 1 0;
#X restore 112 456 pd set_title;
#X f 14;
#X obj 152 95 div 8;
#X text 199 94 <-- line selected;
#N canvas 0 23 450 300 send_to_all 0;
#X obj 105 72 inlet;
#X obj 124 136 t a a a a, f 21;
#X obj 124 218 s \$0-radio_3;
#X obj 165 197 s \$0-radio_2;
#X obj 206 177 s \$0-radio_1;
#X obj 247 157 s \$0-radio_0;
#X connect 0 0 1 0;
#X connect 1 0 2 0;
#X connect 1 1 3 0;
#X connect 1 2 4 0;
#X connect 1 3 5 0;
#X restore 129 424 pd send_to_all;
#X obj 156 266 route 0 1 2 3;
#X obj 394 317 s \$0-radio_3;
#X obj 315 317 s \$0-radio_2;
#X obj 236 317 s \$0-radio_1;
#X obj 156 317 s \$0-radio_0;
#X msg 129 388 color #ff5050 #ff5050 #000000;
#X obj 156 217 f;
#X obj 156 245 list append color #ff5050 #000000 #000000;
#X obj 95 157 t b b b f;
#X obj 95 120 v \$0-line_selected;
#X connect 0 0 1 0;
#X connect 1 0 15 0;
#X connect 1 1 3 0;
#X connect 3 0 15 0;
#X connect 3 0 14 0;
#X connect 6 0 10 0;
#X connect 6 1 9 0;
#X connect 6 2 8 0;
#X connect 6 3 7 0;
#X connect 11 0 5 0;
#X connect 12 0 13 0;
#X connect 13 0 6 0;
#X connect 14 0 12 0;
#X connect 14 1 2 0;
#X connect 14 2 11 0;
#X connect 14 3 12 1;
#X connect 15 0 14 0;
#X restore 230 416 pd save_preset_gui_control;
#N canvas 199 202 574 300 preset_selected 0;
#X obj 247 266 outlet;
#X obj 64 39 r \$0-radio_0_out;
#X obj 179 39 r \$0-radio_1_out;
#X obj 295 39 r \$0-radio_2_out;
#X obj 410 39 r \$0-radio_3_out;
#X obj 179 60 + 8;
#X obj 295 60 + 16;
#X obj 410 60 + 24;
#X connect 1 0 0 0;
#X connect 2 0 5 0;
#X connect 3 0 6 0;
#X connect 4 0 7 0;
#X connect 5 0 0 0;
#X connect 6 0 0 0;
#X connect 7 0 0 0;
#X restore 96 45 pd preset_selected;
#X obj 136 116 t f f;
#X obj 230 384 spigot;
#X obj 300 270 spigot;
#X obj 333 251 == 0;
#X obj 263 359 == 1;
#X connect 0 0 2 1;
#X connect 0 0 11 0;
#X connect 1 0 2 1;
#X connect 1 0 10 0;
#X connect 2 0 9 0;
#X connect 3 0 7 0;
#X connect 3 1 4 0;
#X connect 4 0 5 0;
#X connect 4 1 6 0;
#X connect 5 0 7 1;
#X connect 6 0 7 1;
#X connect 7 0 8 0;
#X connect 7 0 16 0;
#X connect 7 0 17 0;
#X connect 8 0 0 0;
#X connect 8 1 1 0;
#X connect 12 0 13 0;
#X connect 13 0 2 0;
#X connect 13 1 14 0;
#X connect 13 1 15 0;
#X connect 14 0 11 0;
#X connect 15 0 10 0;
#X connect 16 0 15 1;
#X connect 17 0 14 1;
#X restore 12 115 pd shift;
#X obj 21 53 hradio 15 1 0 8 \$0-radio_1_out \$0-radio_1 empty 0 -8
0 10 -174763 -174763 -1 5;
#X obj 21 68 hradio 15 1 0 8 \$0-radio_2_out \$0-radio_2 empty 0 -8
0 10 -174763 -174763 -1 3;
#X obj 21 83 hradio 15 1 0 8 \$0-radio_3_out \$0-radio_3 empty 0 -8
0 10 -174763 -174763 -1 4;
#X obj 21 19 cnv 15 15 15 empty \$0-canvas_preset_behavior load\ preset
0 8 0 12 -262144 -1 0;
#X obj 184 33 r \$0-dx7_interface;
#N canvas 565 160 659 300 presets_receive 0;
#X obj 27 17 inlet;
#X obj 59 71 route all;
#X obj 59 92 route toOscs;
#X obj 59 157 route 1 2 3 4 5 6, f 95;
#N canvas 607 273 627 505 osc1_preset 0;
#X obj 147 37 inlet;
#X obj 193 133 route ratio level env;
#X obj 44 241 r \$0-ratio_osc1;
#X obj 370 242 r \$0-envelope_osc1;
#X msg 85 319 1 ratio \$1;
#X msg 236 322 1 level \$1;
#X obj 252 443 s \$0-to_interface;
#X obj 390 291 message;
#X obj 204 241 r \$0-level_osc1;
#X msg 390 371 1 env \$1 \$2 \$3 \$4;
#X floatatom 236 283 5 0 0 0 - - -;
#X floatatom 85 276 5 0 0 0 - - -;
#X obj 85 296 change;
#X obj 236 302 change;
#X obj 390 312 unpack f f f f, f 30;
#X obj 390 333 change;
#X obj 449 333 change;
#X obj 508 333 change;
#X obj 559 333 change;
#X obj 391 353 pack f f f f, f 29;
#X connect 0 0 1 0;
#X connect 1 0 11 0;
#X connect 1 1 10 0;
#X connect 1 2 7 0;
#X connect 2 0 11 0;
#X connect 3 0 7 0;
#X connect 4 0 6 0;
#X connect 5 0 6 0;
#X connect 7 0 14 0;
#X connect 8 0 10 0;
#X connect 9 0 6 0;
#X connect 10 0 13 0;
#X connect 11 0 12 0;
#X connect 12 0 4 0;
#X connect 13 0 5 0;
#X connect 14 0 15 0;
#X connect 14 1 16 0;
#X connect 14 2 17 0;
#X connect 14 3 18 0;
#X connect 15 0 19 0;
#X connect 16 0 19 1;
#X connect 17 0 19 2;
#X connect 18 0 19 3;
#X connect 19 0 9 0;
#X restore 49 201 pd osc1_preset;
#N canvas 607 273 627 505 osc2_preset 0;
#X obj 147 37 inlet;
#X obj 193 133 route ratio level env;
#X obj 252 443 s \$0-to_interface;
#X obj 390 291 message;
#X floatatom 236 283 5 0 0 0 - - -;
#X floatatom 85 276 5 0 0 0 - - -;
#X obj 85 296 change;
#X obj 236 302 change;
#X obj 390 312 unpack f f f f, f 30;
#X obj 390 333 change;
#X obj 449 333 change;
#X obj 508 333 change;
#X obj 559 333 change;
#X obj 391 353 pack f f f f, f 29;
#X obj 44 241 r \$0-ratio_osc2;
#X obj 204 241 r \$0-level_osc2;
#X obj 370 242 r \$0-envelope_osc2;
#X msg 390 371 2 env \$1 \$2 \$3 \$4;
#X msg 85 319 2 ratio \$1;
#X msg 236 322 2 level \$1;
#X connect 0 0 1 0;
#X connect 1 0 5 0;
#X connect 1 1 4 0;
#X connect 1 2 3 0;
#X connect 3 0 8 0;
#X connect 4 0 7 0;
#X connect 5 0 6 0;
#X connect 6 0 18 0;
#X connect 7 0 19 0;
#X connect 8 0 9 0;
#X connect 8 1 10 0;
#X connect 8 2 11 0;
#X connect 8 3 12 0;
#X connect 9 0 13 0;
#X connect 10 0 13 1;
#X connect 11 0 13 2;
#X connect 12 0 13 3;
#X connect 13 0 17 0;
#X connect 14 0 5 0;
#X connect 15 0 4 0;
#X connect 16 0 3 0;
#X connect 17 0 2 0;
#X connect 18 0 2 0;
#X connect 19 0 2 0;
#X restore 149 201 pd osc2_preset;
#N canvas 607 273 627 505 osc3_preset 0;
#X obj 147 37 inlet;
#X obj 193 133 route ratio level env;
#X obj 252 443 s \$0-to_interface;
#X obj 390 291 message;
#X floatatom 236 283 5 0 0 0 - - -;
#X floatatom 85 276 5 0 0 0 - - -;
#X obj 85 296 change;
#X obj 236 302 change;
#X obj 390 312 unpack f f f f, f 30;
#X obj 390 333 change;
#X obj 449 333 change;
#X obj 508 333 change;
#X obj 559 333 change;
#X obj 391 353 pack f f f f, f 29;
#X obj 44 241 r \$0-ratio_osc3;
#X obj 204 241 r \$0-level_osc3;
#X obj 370 242 r \$0-envelope_osc3;
#X msg 390 371 3 env \$1 \$2 \$3 \$4;
#X msg 85 319 3 ratio \$1;
#X msg 236 322 3 level \$1;
#X connect 0 0 1 0;
#X connect 1 0 5 0;
#X connect 1 1 4 0;
#X connect 1 2 3 0;
#X connect 3 0 8 0;
#X connect 4 0 7 0;
#X connect 5 0 6 0;
#X connect 6 0 18 0;
#X connect 7 0 19 0;
#X connect 8 0 9 0;
#X connect 8 1 10 0;
#X connect 8 2 11 0;
#X connect 8 3 12 0;
#X connect 9 0 13 0;
#X connect 10 0 13 1;
#X connect 11 0 13 2;
#X connect 12 0 13 3;
#X connect 13 0 17 0;
#X connect 14 0 5 0;
#X connect 15 0 4 0;
#X connect 16 0 3 0;
#X connect 17 0 2 0;
#X connect 18 0 2 0;
#X connect 19 0 2 0;
#X restore 249 201 pd osc3_preset;
#N canvas 607 273 627 505 osc4_preset 0;
#X obj 147 37 inlet;
#X obj 193 133 route ratio level env;
#X obj 252 443 s \$0-to_interface;
#X obj 390 291 message;
#X floatatom 236 283 5 0 0 0 - - -;
#X floatatom 85 276 5 0 0 0 - - -;
#X obj 85 296 change;
#X obj 236 302 change;
#X obj 390 312 unpack f f f f, f 30;
#X obj 390 333 change;
#X obj 449 333 change;
#X obj 508 333 change;
#X obj 559 333 change;
#X obj 391 353 pack f f f f, f 29;
#X obj 44 241 r \$0-ratio_osc4;
#X obj 204 241 r \$0-level_osc4;
#X obj 370 242 r \$0-envelope_osc4;
#X msg 390 371 4 env \$1 \$2 \$3 \$4;
#X msg 85 319 4 ratio \$1;
#X msg 236 322 4 level \$1;
#X connect 0 0 1 0;
#X connect 1 0 5 0;
#X connect 1 1 4 0;
#X connect 1 2 3 0;
#X connect 3 0 8 0;
#X connect 4 0 7 0;
#X connect 5 0 6 0;
#X connect 6 0 18 0;
#X connect 7 0 19 0;
#X connect 8 0 9 0;
#X connect 8 1 10 0;
#X connect 8 2 11 0;
#X connect 8 3 12 0;
#X connect 9 0 13 0;
#X connect 10 0 13 1;
#X connect 11 0 13 2;
#X connect 12 0 13 3;
#X connect 13 0 17 0;
#X connect 14 0 5 0;
#X connect 15 0 4 0;
#X connect 16 0 3 0;
#X connect 17 0 2 0;
#X connect 18 0 2 0;
#X connect 19 0 2 0;
#X restore 349 201 pd osc4_preset;
#N canvas 607 273 627 505 osc5_preset 0;
#X obj 147 37 inlet;
#X obj 193 133 route ratio level env;
#X obj 252 443 s \$0-to_interface;
#X obj 390 291 message;
#X floatatom 236 283 5 0 0 0 - - -;
#X floatatom 85 276 5 0 0 0 - - -;
#X obj 85 296 change;
#X obj 236 302 change;
#X obj 390 312 unpack f f f f, f 30;
#X obj 390 333 change;
#X obj 449 333 change;
#X obj 508 333 change;
#X obj 559 333 change;
#X obj 391 353 pack f f f f, f 29;
#X obj 44 241 r \$0-ratio_osc5;
#X obj 204 241 r \$0-level_osc5;
#X obj 370 242 r \$0-envelope_osc5;
#X msg 390 371 5 env \$1 \$2 \$3 \$4;
#X msg 85 319 5 ratio \$1;
#X msg 236 322 5 level \$1;
#X connect 0 0 1 0;
#X connect 1 0 5 0;
#X connect 1 1 4 0;
#X connect 1 2 3 0;
#X connect 3 0 8 0;
#X connect 4 0 7 0;
#X connect 5 0 6 0;
#X connect 6 0 18 0;
#X connect 7 0 19 0;
#X connect 8 0 9 0;
#X connect 8 1 10 0;
#X connect 8 2 11 0;
#X connect 8 3 12 0;
#X connect 9 0 13 0;
#X connect 10 0 13 1;
#X connect 11 0 13 2;
#X connect 12 0 13 3;
#X connect 13 0 17 0;
#X connect 14 0 5 0;
#X connect 15 0 4 0;
#X connect 16 0 3 0;
#X connect 17 0 2 0;
#X connect 18 0 2 0;
#X connect 19 0 2 0;
#X restore 449 201 pd osc5_preset;
#N canvas 607 273 627 505 osc6_preset 0;
#X obj 147 37 inlet;
#X obj 193 133 route ratio level env;
#X obj 252 443 s \$0-to_interface;
#X obj 390 291 message;
#X floatatom 236 283 5 0 0 0 - - -;
#X floatatom 85 276 5 0 0 0 - - -;
#X obj 85 296 change;
#X obj 236 302 change;
#X obj 390 312 unpack f f f f, f 30;
#X obj 390 333 change;
#X obj 449 333 change;
#X obj 508 333 change;
#X obj 559 333 change;
#X obj 391 353 pack f f f f, f 29;
#X obj 44 241 r \$0-ratio_osc6;
#X obj 204 241 r \$0-level_osc6;
#X obj 370 242 r \$0-envelope_osc6;
#X msg 390 371 6 env \$1 \$2 \$3 \$4;
#X msg 85 319 6 ratio \$1;
#X msg 236 322 6 level \$1;
#X connect 0 0 1 0;
#X connect 1 0 5 0;
#X connect 1 1 4 0;
#X connect 1 2 3 0;
#X connect 3 0 8 0;
#X connect 4 0 7 0;
#X connect 5 0 6 0;
#X connect 6 0 18 0;
#X connect 7 0 19 0;
#X connect 8 0 9 0;
#X connect 8 1 10 0;
#X connect 8 2 11 0;
#X connect 8 3 12 0;
#X connect 9 0 13 0;
#X connect 10 0 13 1;
#X connect 11 0 13 2;
#X connect 12 0 13 3;
#X connect 13 0 17 0;
#X connect 14 0 5 0;
#X connect 15 0 4 0;
#X connect 16 0 3 0;
#X connect 17 0 2 0;
#X connect 18 0 2 0;
#X connect 19 0 2 0;
#X restore 549 201 pd osc6_preset;
#X connect 0 0 1 0;
#X connect 1 0 2 0;
#X connect 2 0 3 0;
#X connect 3 0 4 0;
#X connect 3 1 5 0;
#X connect 3 2 6 0;
#X connect 3 3 7 0;
#X connect 3 4 8 0;
#X connect 3 5 9 0;
#X restore 198 68 pd presets_receive;
#X obj 80 224 presets \\\$0-ratio_osc1 \\\$0-level_osc1 \\\$0-envelope_osc1
\\\$0-ratio_osc2 \\\$0-level_osc2 \\\$0-envelope_osc2 \\\$0-ratio_osc3
\\\$0-level_osc3 \\\$0-envelope_osc3 \\\$0-ratio_osc4 \\\$0-level_osc4
\\\$0-envelope_osc4 \\\$0-ratio_osc5 \\\$0-level_osc5 \\\$0-envelope_osc5
\\\$0-ratio_osc6 \\\$0-level_osc6 \\\$0-envelope_osc6 \\\$0-algorithm
\\\$0-feedback;
#A saved \\\$0-ratio_osc1 1 || \\\$0-level_osc1 0.5 || \\\$0-envelope_osc1
5 12.4762 1 1033.8 || \\\$0-ratio_osc2 1 || \\\$0-level_osc2 6.51993
|| \\\$0-envelope_osc2 799 1164 1 2947.31 || \\\$0-ratio_osc3 1 ||
\\\$0-level_osc3 1 || \\\$0-envelope_osc3 5 0.0799396 1 2092.26 ||
\\\$0-ratio_osc4 0.226461 || \\\$0-level_osc4 1 || \\\$0-envelope_osc4
588 2648.75 1 2462.59 || \\\$0-ratio_osc5 1 || \\\$0-level_osc5 5.11911
|| \\\$0-envelope_osc5 5 676.03 1 1997.41 || \\\$0-ratio_osc6 0.267276
|| \\\$0-level_osc6 0.5 || \\\$0-envelope_osc6 5 130.162 0 2003.38
|| \\\$0-algorithm 14 || \\\$0-feedback 0 || \; \\\$0-ratio_osc1 0.452295
|| \\\$0-level_osc1 0.5 || \\\$0-envelope_osc1 29 174.742 0 2624.41
|| \\\$0-ratio_osc2 1 || \\\$0-level_osc2 1.10065 || \\\$0-envelope_osc2
5 817.816 0 243.287 || \\\$0-ratio_osc3 1 || \\\$0-level_osc3 1 ||
\\\$0-envelope_osc3 322 14.6519 0 2692.93 || \\\$0-ratio_osc4 1 ||
\\\$0-level_osc4 5.65425 || \\\$0-envelope_osc4 5 1873.6 1 1452.98
|| \\\$0-ratio_osc5 1 || \\\$0-level_osc5 5.22594 || \\\$0-envelope_osc5
397.865 1127.47 0.157303 1662.3 || \\\$0-ratio_osc6 0.399364 || \\\$0-level_osc6
5.37506 || \\\$0-envelope_osc6 1541 171.94 1 2591.22 || \\\$0-algorithm
28 || \\\$0-feedback 0 || \; \\\$0-ratio_osc1 0.95143 || \\\$0-level_osc1
4.93271 || \\\$0-envelope_osc1 1018 2172.65 0 2680.93 || \\\$0-ratio_osc2
0.533805 || \\\$0-level_osc2 0.5 || \\\$0-envelope_osc2 1816 2475.94
0 2805.53 || \\\$0-ratio_osc3 1 || \\\$0-level_osc3 0.5 || \\\$0-envelope_osc3
5 220.579 0 898.381 || \\\$0-ratio_osc4 1 || \\\$0-level_osc4 0.5 ||
\\\$0-envelope_osc4 1990 3.4557 1 2666.09 || \\\$0-ratio_osc5 0.157206
|| \\\$0-level_osc5 5.43696 || \\\$0-envelope_osc5 5 385.467 1 1421.05
|| \\\$0-ratio_osc6 0.945067 || \\\$0-level_osc6 4.79677 || \\\$0-envelope_osc6
1831 407.558 1 2452.79 || \\\$0-algorithm 5 || \\\$0-feedback 0 ||
\; \\\$0-ratio_osc1 0.19349 || \\\$0-level_osc1 7.17109 || \\\$0-envelope_osc1
5 2575.33 0 368.922 || \\\$0-ratio_osc2 1 || \\\$0-level_osc2 2.92607
|| \\\$0-envelope_osc2 5 979.572 1 1592 || \\\$0-ratio_osc3 0.168545
|| \\\$0-level_osc3 1.08448 || \\\$0-envelope_osc3 5 520.109 0 1004.31
|| \\\$0-ratio_osc4 1 || \\\$0-level_osc4 0.5 || \\\$0-envelope_osc4
5 189.343 0 1067.07 || \\\$0-ratio_osc5 1 || \\\$0-level_osc5 1 ||
\\\$0-envelope_osc5 5 0.206512 0 1662.3 || \\\$0-ratio_osc6 1 || \\\$0-level_osc6
1 || \\\$0-envelope_osc6 5 134.539 1 1337.56 || \\\$0-algorithm 21
|| \\\$0-feedback 0 || \; \\\$0-ratio_osc1 1 || \\\$0-level_osc1 0.5
|| \\\$0-envelope_osc1 5 77.771 0 430.841 || \\\$0-ratio_osc2 1 ||
\\\$0-level_osc2 7.10882 || \\\$0-envelope_osc2 1449 566.684 0 2652.5
|| \\\$0-ratio_osc3 1 || \\\$0-level_osc3 5.0403 || \\\$0-envelope_osc3
247 1275.21 1 2604.56 || \\\$0-ratio_osc4 1 || \\\$0-level_osc4 1 ||
\\\$0-envelope_osc4 5 318.989 0 1618.71 || \\\$0-ratio_osc5 1 || \\\$0-level_osc5
7.12588 || \\\$0-envelope_osc5 5 1434.13 1 972.263 || \\\$0-ratio_osc6
0.451224 || \\\$0-level_osc6 6.41476 || \\\$0-envelope_osc6 5 10.4649
1 117.735 || \\\$0-algorithm 16 || \\\$0-feedback 0 || \; -empty- \;
-empty- \; -empty- \; -empty- \; -empty- \; -empty- \; -empty- \; -empty-
\; -empty- \; -empty- \; -empty- \; -empty- \; -empty- \; -empty- \;
-empty- \; -empty- \; -empty- \; -empty- \; -empty- \; -empty- \; -empty-
\; -empty- \; -empty- \; -empty- \; -empty- \; -empty- \; -empty- \;
-empty- \; -empty- \; -empty- \; -empty- \; -empty- \; -empty- \; -empty-
\; -empty- \; -empty- \; -empty- \; -empty- \; -empty- \; -empty- \;
-empty- \; -empty- \; -empty- \; -empty- \; -empty- \; -empty- \; -empty-
\; -empty- \; -empty- \; -empty- \; -empty- \; -empty- \; -empty- \;
-empty- \; -empty- \; -empty- \; -empty- \; -empty- \; -empty- \;;
#X connect 0 0 9 0;
#X connect 2 0 9 0;
#X connect 7 0 8 0;
#X coords 0 -1 1 1 145 100 2 10 10;
#X restore 500 57 pd PRESETS;
#X text 955 280 behavior introduced by experimental version of [presets]
, f 36;
#X text 930 267 <-- hack to avoid need to save patch every change.
;
#X text 1083 499 Esteban Viveros 2021;
#X obj 1031 482 openfile https://github.com/emviveros/DX7_Pd_ELSE -h
DX7_Pd_ELSE github repository;
#X obj 769 297 r \$0-algorithm;
#X obj 833 416 r \$0-feedback;
#X text 47 30 LiVoDX7;
#X text 541 268 Open Pd Patch;
#X msg 702 90 \; pd-worker obj 10 10 subprocess~ \$1/Pd-0.51-4_kiosked.app/Contents/Resources
\; pd-worker loadbang;
#X obj 1110 55 declare -path ./else;
#X obj 1123 74 declare -path else;
#X obj 521 206 s randomize;
#X obj 864 166 r randomize;
#X obj 783 317 r algorithm_randomization;
#X obj 819 393 r feedback_randomization;
#X obj 1025 368 r to_interface_randomization;
#X obj 987 238 s bang_to_randomization;
#X obj 719 243 list prepend notein;
#X obj 719 264 list trim;
#X msg 987 218 1;
#X connect 0 0 40 0;
#X connect 1 0 0 0;
#X connect 3 0 1 0;
#X connect 4 0 5 0;
#X connect 8 0 9 0;
#X connect 8 1 9 1;
#X connect 9 0 49 0;
#X connect 10 0 13 0;
#X connect 11 0 12 0;
#X connect 12 0 6 0;
#X connect 13 0 6 0;
#X connect 14 0 6 0;
#X connect 15 0 21 0;
#X connect 16 0 22 0;
#X connect 17 0 21 0;
#X connect 18 0 22 0;
#X connect 19 0 21 0;
#X connect 20 0 22 0;
#X connect 23 0 15 0;
#X connect 23 0 19 0;
#X connect 23 0 17 0;
#X connect 24 0 16 0;
#X connect 24 0 20 0;
#X connect 24 0 18 0;
#X connect 25 0 43 0;
#X connect 28 0 30 0;
#X connect 28 1 51 0;
#X connect 30 0 29 0;
#X connect 36 0 11 0;
#X connect 37 0 10 0;
#X connect 44 0 28 0;
#X connect 45 0 11 0;
#X connect 46 0 10 0;
#X connect 47 0 26 0;
#X connect 49 0 50 0;
#X connect 50 0 6 0;
#X connect 51 0 48 0;
#X coords 0 -1 1 1 660 500 2 10 20;
